<?xml version="1.0" encoding="utf-8" standalone="no"?>
<!DOCTYPE svg PUBLIC "-//W3C//DTD SVG 1.1//EN"
  "http://www.w3.org/Graphics/SVG/1.1/DTD/svg11.dtd">
<svg xmlns:xlink="http://www.w3.org/1999/xlink" width="268.960318pt" height="250.075107pt" viewBox="0 0 268.960318 250.075107" xmlns="http://www.w3.org/2000/svg" version="1.1">
 <metadata>
  <rdf:RDF xmlns:dc="http://purl.org/dc/elements/1.1/" xmlns:cc="http://creativecommons.org/ns#" xmlns:rdf="http://www.w3.org/1999/02/22-rdf-syntax-ns#">
   <cc:Work>
    <dc:type rdf:resource="http://purl.org/dc/dcmitype/StillImage"/>
    <dc:date>2024-08-23T15:12:30.244247</dc:date>
    <dc:format>image/svg+xml</dc:format>
    <dc:creator>
     <cc:Agent>
      <dc:title>Matplotlib v3.9.2, https://matplotlib.org/</dc:title>
     </cc:Agent>
    </dc:creator>
   </cc:Work>
  </rdf:RDF>
 </metadata>
 <defs>
  <style type="text/css">*{stroke-linejoin: round; stroke-linecap: butt}</style>
 </defs>
 <g id="figure_1">
  <g id="patch_1">
   <path d="M 0 250.075107 
L 268.960318 250.075107 
L 268.960318 0 
L 0 0 
z
" style="fill: #ffffff"/>
  </g>
  <g id="axes_1">
   <g id="patch_2">
    <path d="M 52.575 211.875107 
L 254.175 211.875107 
L 254.175 10.275107 
L 52.575 10.275107 
z
" style="fill: #ffffff"/>
   </g>
   <g id="QuadMesh_1">
    <path d="M 153.375 211.875107 
L 137.718338 210.700026 
L 153.375 209.524944 
L 169.031662 210.700026 
L 153.375 211.875107 
" clip-path="url(#p9fdb3b788c)" style="fill: #00004e"/>
    <path d="M 137.718338 210.700026 
L 122.344769 208.91992 
L 138.001431 207.744838 
L 153.375 209.524944 
L 137.718338 210.700026 
" clip-path="url(#p9fdb3b788c)" style="fill: #030267"/>
    <path d="M 122.344769 208.91992 
L 107.725105 205.959434 
L 123.381768 204.784353 
L 138.001431 207.744838 
L 122.344769 208.91992 
" clip-path="url(#p9fdb3b788c)" style="fill: #0c0183"/>
    <path d="M 107.725105 205.959434 
L 94.223069 201.892224 
L 109.879732 200.717142 
L 123.381768 204.784353 
L 107.725105 205.959434 
" clip-path="url(#p9fdb3b788c)" style="fill: #10019d"/>
    <path d="M 94.223069 201.892224 
L 82.174578 196.819476 
L 97.831241 195.644394 
L 109.879732 200.717142 
L 94.223069 201.892224 
" clip-path="url(#p9fdb3b788c)" style="fill: #0904b7"/>
    <path d="M 82.174578 196.819476 
L 71.879386 190.867395 
L 87.536049 189.692314 
L 97.831241 195.644394 
L 82.174578 196.819476 
" clip-path="url(#p9fdb3b788c)" style="fill: #070bca"/>
    <path d="M 71.879386 190.867395 
L 63.593627 184.184064 
L 79.25029 183.008983 
L 87.536049 189.692314 
L 71.879386 190.867395 
" clip-path="url(#p9fdb3b788c)" style="fill: #0e12d9"/>
    <path d="M 63.593627 184.184064 
L 57.523443 176.935757 
L 73.180105 175.760676 
L 79.25029 183.008983 
L 63.593627 184.184064 
" clip-path="url(#p9fdb3b788c)" style="fill: #1618e3"/>
    <path d="M 57.523443 176.935757 
L 53.819853 169.302805 
L 69.476516 168.127723 
L 73.180105 175.760676 
L 57.523443 176.935757 
" clip-path="url(#p9fdb3b788c)" style="fill: #1b1ce9"/>
    <path d="M 53.819853 169.302805 
L 52.575 161.475107 
L 68.231662 160.300026 
L 69.476516 168.127723 
L 53.819853 169.302805 
" clip-path="url(#p9fdb3b788c)" style="fill: #1d1feb"/>
    <path d="M 52.575 161.475107 
L 53.819853 153.647409 
L 69.476516 152.472328 
L 68.231662 160.300026 
L 52.575 161.475107 
" clip-path="url(#p9fdb3b788c)" style="fill: #1d1feb"/>
    <path d="M 53.819853 153.647409 
L 57.523443 146.014457 
L 73.180105 144.839375 
L 69.476516 152.472328 
L 53.819853 153.647409 
" clip-path="url(#p9fdb3b788c)" style="fill: #1b1ce9"/>
    <path d="M 57.523443 146.014457 
L 63.593627 138.76615 
L 79.25029 137.591068 
L 73.180105 144.839375 
L 57.523443 146.014457 
" clip-path="url(#p9fdb3b788c)" style="fill: #1618e3"/>
    <path d="M 63.593627 138.76615 
L 71.879386 132.082819 
L 87.536049 130.907737 
L 79.25029 137.591068 
L 63.593627 138.76615 
" clip-path="url(#p9fdb3b788c)" style="fill: #0e12d9"/>
    <path d="M 71.879386 132.082819 
L 82.174578 126.130738 
L 97.831241 124.955657 
L 87.536049 130.907737 
L 71.879386 132.082819 
" clip-path="url(#p9fdb3b788c)" style="fill: #070bca"/>
    <path d="M 82.174578 126.130738 
L 94.223069 121.05799 
L 109.879732 119.882909 
L 97.831241 124.955657 
L 82.174578 126.130738 
" clip-path="url(#p9fdb3b788c)" style="fill: #0904b7"/>
    <path d="M 94.223069 121.05799 
L 107.725105 116.99078 
L 123.381768 115.815698 
L 109.879732 119.882909 
L 94.223069 121.05799 
" clip-path="url(#p9fdb3b788c)" style="fill: #10019d"/>
    <path d="M 107.725105 116.99078 
L 122.344769 114.030294 
L 138.001431 112.855213 
L 123.381768 115.815698 
L 107.725105 116.99078 
" clip-path="url(#p9fdb3b788c)" style="fill: #0c0183"/>
    <path d="M 122.344769 114.030294 
L 137.718338 112.250188 
L 153.375 111.075107 
L 138.001431 112.855213 
L 122.344769 114.030294 
" clip-path="url(#p9fdb3b788c)" style="fill: #030267"/>
    <path d="M 137.718338 112.250188 
L 153.375 111.075107 
L 169.031662 109.900026 
L 153.375 111.075107 
L 137.718338 112.250188 
" clip-path="url(#p9fdb3b788c)" style="fill: #00004e"/>
    <path d="M 169.031662 210.700026 
L 153.375 209.524944 
L 168.748569 207.744838 
L 184.405231 208.91992 
L 169.031662 210.700026 
" clip-path="url(#p9fdb3b788c)" style="fill: #030267"/>
    <path d="M 153.375 209.524944 
L 138.001431 207.744838 
L 153.375 205.964732 
L 168.748569 207.744838 
L 153.375 209.524944 
" clip-path="url(#p9fdb3b788c)" style="fill: #0d0187"/>
    <path d="M 138.001431 207.744838 
L 123.381768 204.784353 
L 138.755336 203.004247 
L 153.375 205.964732 
L 138.001431 207.744838 
" clip-path="url(#p9fdb3b788c)" style="fill: #0e02a7"/>
    <path d="M 123.381768 204.784353 
L 109.879732 200.717142 
L 125.2533 198.937036 
L 138.755336 203.004247 
L 123.381768 204.784353 
" clip-path="url(#p9fdb3b788c)" style="fill: #0708c4"/>
    <path d="M 109.879732 200.717142 
L 97.831241 195.644394 
L 113.204809 193.864288 
L 125.2533 198.937036 
L 109.879732 200.717142 
" clip-path="url(#p9fdb3b788c)" style="fill: #0e12d9"/>
    <path d="M 97.831241 195.644394 
L 87.536049 189.692314 
L 102.909617 187.912208 
L 113.204809 193.864288 
L 97.831241 195.644394 
" clip-path="url(#p9fdb3b788c)" style="fill: #1b1ce9"/>
    <path d="M 87.536049 189.692314 
L 79.25029 183.008983 
L 94.623858 181.228877 
L 102.909617 187.912208 
L 87.536049 189.692314 
" clip-path="url(#p9fdb3b788c)" style="fill: #2429f3"/>
    <path d="M 79.25029 183.008983 
L 73.180105 175.760676 
L 88.553674 173.98057 
L 94.623858 181.228877 
L 79.25029 183.008983 
" clip-path="url(#p9fdb3b788c)" style="fill: #2934f8"/>
    <path d="M 73.180105 175.760676 
L 69.476516 168.127723 
L 84.850085 166.347617 
L 88.553674 173.98057 
L 73.180105 175.760676 
" clip-path="url(#p9fdb3b788c)" style="fill: #2b3bf9"/>
    <path d="M 69.476516 168.127723 
L 68.231662 160.300026 
L 83.605231 158.51992 
L 84.850085 166.347617 
L 69.476516 168.127723 
" clip-path="url(#p9fdb3b788c)" style="fill: #2c3efa"/>
    <path d="M 68.231662 160.300026 
L 69.476516 152.472328 
L 84.850085 150.692222 
L 83.605231 158.51992 
L 68.231662 160.300026 
" clip-path="url(#p9fdb3b788c)" style="fill: #2c3efa"/>
    <path d="M 69.476516 152.472328 
L 73.180105 144.839375 
L 88.553674 143.059269 
L 84.850085 150.692222 
L 69.476516 152.472328 
" clip-path="url(#p9fdb3b788c)" style="fill: #2b3bf9"/>
    <path d="M 73.180105 144.839375 
L 79.25029 137.591068 
L 94.623858 135.810962 
L 88.553674 143.059269 
L 73.180105 144.839375 
" clip-path="url(#p9fdb3b788c)" style="fill: #2934f8"/>
    <path d="M 79.25029 137.591068 
L 87.536049 130.907737 
L 102.909617 129.127631 
L 94.623858 135.810962 
L 79.25029 137.591068 
" clip-path="url(#p9fdb3b788c)" style="fill: #2429f3"/>
    <path d="M 87.536049 130.907737 
L 97.831241 124.955657 
L 113.204809 123.175551 
L 102.909617 129.127631 
L 87.536049 130.907737 
" clip-path="url(#p9fdb3b788c)" style="fill: #1b1ce9"/>
    <path d="M 97.831241 124.955657 
L 109.879732 119.882909 
L 125.2533 118.102803 
L 113.204809 123.175551 
L 97.831241 124.955657 
" clip-path="url(#p9fdb3b788c)" style="fill: #0e12d9"/>
    <path d="M 109.879732 119.882909 
L 123.381768 115.815698 
L 138.755336 114.035592 
L 125.2533 118.102803 
L 109.879732 119.882909 
" clip-path="url(#p9fdb3b788c)" style="fill: #0708c4"/>
    <path d="M 123.381768 115.815698 
L 138.001431 112.855213 
L 153.375 111.075107 
L 138.755336 114.035592 
L 123.381768 115.815698 
" clip-path="url(#p9fdb3b788c)" style="fill: #0e02a7"/>
    <path d="M 138.001431 112.855213 
L 153.375 111.075107 
L 168.748569 109.295001 
L 153.375 111.075107 
L 138.001431 112.855213 
" clip-path="url(#p9fdb3b788c)" style="fill: #0d0187"/>
    <path d="M 153.375 111.075107 
L 169.031662 109.900026 
L 184.405231 108.11992 
L 168.748569 109.295001 
L 153.375 111.075107 
" clip-path="url(#p9fdb3b788c)" style="fill: #030267"/>
    <path d="M 184.405231 208.91992 
L 168.748569 207.744838 
L 183.368232 204.784353 
L 199.024895 205.959434 
L 184.405231 208.91992 
" clip-path="url(#p9fdb3b788c)" style="fill: #0c0183"/>
    <path d="M 168.748569 207.744838 
L 153.375 205.964732 
L 167.994664 203.004247 
L 183.368232 204.784353 
L 168.748569 207.744838 
" clip-path="url(#p9fdb3b788c)" style="fill: #0e02a7"/>
    <path d="M 153.375 205.964732 
L 138.755336 203.004247 
L 153.375 200.043761 
L 167.994664 203.004247 
L 153.375 205.964732 
" clip-path="url(#p9fdb3b788c)" style="fill: #0709c6"/>
    <path d="M 138.755336 203.004247 
L 125.2533 198.937036 
L 139.872964 195.976551 
L 153.375 200.043761 
L 138.755336 203.004247 
" clip-path="url(#p9fdb3b788c)" style="fill: #1316e0"/>
    <path d="M 125.2533 198.937036 
L 113.204809 193.864288 
L 127.824473 190.903803 
L 139.872964 195.976551 
L 125.2533 198.937036 
" clip-path="url(#p9fdb3b788c)" style="fill: #2226f1"/>
    <path d="M 113.204809 193.864288 
L 102.909617 187.912208 
L 117.529281 184.951722 
L 127.824473 190.903803 
L 113.204809 193.864288 
" clip-path="url(#p9fdb3b788c)" style="fill: #2a37f9"/>
    <path d="M 102.909617 187.912208 
L 94.623858 181.228877 
L 109.243522 178.268391 
L 117.529281 184.951722 
L 102.909617 187.912208 
" clip-path="url(#p9fdb3b788c)" style="fill: #2e47fa"/>
    <path d="M 94.623858 181.228877 
L 88.553674 173.98057 
L 103.173338 171.020084 
L 109.243522 178.268391 
L 94.623858 181.228877 
" clip-path="url(#p9fdb3b788c)" style="fill: #2f53fb"/>
    <path d="M 88.553674 173.98057 
L 84.850085 166.347617 
L 99.469748 163.387132 
L 103.173338 171.020084 
L 88.553674 173.98057 
" clip-path="url(#p9fdb3b788c)" style="fill: #2f5bfc"/>
    <path d="M 84.850085 166.347617 
L 83.605231 158.51992 
L 98.224895 155.559434 
L 99.469748 163.387132 
L 84.850085 166.347617 
" clip-path="url(#p9fdb3b788c)" style="fill: #2f5ffc"/>
    <path d="M 83.605231 158.51992 
L 84.850085 150.692222 
L 99.469748 147.731737 
L 98.224895 155.559434 
L 83.605231 158.51992 
" clip-path="url(#p9fdb3b788c)" style="fill: #2f5ffc"/>
    <path d="M 84.850085 150.692222 
L 88.553674 143.059269 
L 103.173338 140.098784 
L 99.469748 147.731737 
L 84.850085 150.692222 
" clip-path="url(#p9fdb3b788c)" style="fill: #2f5bfc"/>
    <path d="M 88.553674 143.059269 
L 94.623858 135.810962 
L 109.243522 132.850477 
L 103.173338 140.098784 
L 88.553674 143.059269 
" clip-path="url(#p9fdb3b788c)" style="fill: #2f53fb"/>
    <path d="M 94.623858 135.810962 
L 102.909617 129.127631 
L 117.529281 126.167146 
L 109.243522 132.850477 
L 94.623858 135.810962 
" clip-path="url(#p9fdb3b788c)" style="fill: #2e47fa"/>
    <path d="M 102.909617 129.127631 
L 113.204809 123.175551 
L 127.824473 120.215066 
L 117.529281 126.167146 
L 102.909617 129.127631 
" clip-path="url(#p9fdb3b788c)" style="fill: #2a37f9"/>
    <path d="M 113.204809 123.175551 
L 125.2533 118.102803 
L 139.872964 115.142318 
L 127.824473 120.215066 
L 113.204809 123.175551 
" clip-path="url(#p9fdb3b788c)" style="fill: #2226f1"/>
    <path d="M 125.2533 118.102803 
L 138.755336 114.035592 
L 153.375 111.075107 
L 139.872964 115.142318 
L 125.2533 118.102803 
" clip-path="url(#p9fdb3b788c)" style="fill: #1316e0"/>
    <path d="M 138.755336 114.035592 
L 153.375 111.075107 
L 167.994664 108.114622 
L 153.375 111.075107 
L 138.755336 114.035592 
" clip-path="url(#p9fdb3b788c)" style="fill: #0709c6"/>
    <path d="M 153.375 111.075107 
L 168.748569 109.295001 
L 183.368232 106.334516 
L 167.994664 108.114622 
L 153.375 111.075107 
" clip-path="url(#p9fdb3b788c)" style="fill: #0e02a7"/>
    <path d="M 168.748569 109.295001 
L 184.405231 108.11992 
L 199.024895 105.159434 
L 183.368232 106.334516 
L 168.748569 109.295001 
" clip-path="url(#p9fdb3b788c)" style="fill: #0c0183"/>
    <path d="M 199.024895 205.959434 
L 183.368232 204.784353 
L 196.870268 200.717142 
L 212.526931 201.892224 
L 199.024895 205.959434 
" clip-path="url(#p9fdb3b788c)" style="fill: #10019d"/>
    <path d="M 183.368232 204.784353 
L 167.994664 203.004247 
L 181.4967 198.937036 
L 196.870268 200.717142 
L 183.368232 204.784353 
" clip-path="url(#p9fdb3b788c)" style="fill: #0708c4"/>
    <path d="M 167.994664 203.004247 
L 153.375 200.043761 
L 166.877036 195.976551 
L 181.4967 198.937036 
L 167.994664 203.004247 
" clip-path="url(#p9fdb3b788c)" style="fill: #1316e0"/>
    <path d="M 153.375 200.043761 
L 139.872964 195.976551 
L 153.375 191.90934 
L 166.877036 195.976551 
L 153.375 200.043761 
" clip-path="url(#p9fdb3b788c)" style="fill: #2429f3"/>
    <path d="M 139.872964 195.976551 
L 127.824473 190.903803 
L 141.326509 186.836592 
L 153.375 191.90934 
L 139.872964 195.976551 
" clip-path="url(#p9fdb3b788c)" style="fill: #2c3efa"/>
    <path d="M 127.824473 190.903803 
L 117.529281 184.951722 
L 131.031317 180.884512 
L 141.326509 186.836592 
L 127.824473 190.903803 
" clip-path="url(#p9fdb3b788c)" style="fill: #2f53fb"/>
    <path d="M 117.529281 184.951722 
L 109.243522 178.268391 
L 122.745558 174.201181 
L 131.031317 180.884512 
L 117.529281 184.951722 
" clip-path="url(#p9fdb3b788c)" style="fill: #2f62fc"/>
    <path d="M 109.243522 178.268391 
L 103.173338 171.020084 
L 116.675374 166.952874 
L 122.745558 174.201181 
L 109.243522 178.268391 
" clip-path="url(#p9fdb3b788c)" style="fill: #2c6ffd"/>
    <path d="M 103.173338 171.020084 
L 99.469748 163.387132 
L 112.971784 159.319921 
L 116.675374 166.952874 
L 103.173338 171.020084 
" clip-path="url(#p9fdb3b788c)" style="fill: #2b77fd"/>
    <path d="M 99.469748 163.387132 
L 98.224895 155.559434 
L 111.726931 151.492224 
L 112.971784 159.319921 
L 99.469748 163.387132 
" clip-path="url(#p9fdb3b788c)" style="fill: #2b7bfd"/>
    <path d="M 98.224895 155.559434 
L 99.469748 147.731737 
L 112.971784 143.664526 
L 111.726931 151.492224 
L 98.224895 155.559434 
" clip-path="url(#p9fdb3b788c)" style="fill: #2b7bfd"/>
    <path d="M 99.469748 147.731737 
L 103.173338 140.098784 
L 116.675374 136.031573 
L 112.971784 143.664526 
L 99.469748 147.731737 
" clip-path="url(#p9fdb3b788c)" style="fill: #2b77fd"/>
    <path d="M 103.173338 140.098784 
L 109.243522 132.850477 
L 122.745558 128.783266 
L 116.675374 136.031573 
L 103.173338 140.098784 
" clip-path="url(#p9fdb3b788c)" style="fill: #2c6ffd"/>
    <path d="M 109.243522 132.850477 
L 117.529281 126.167146 
L 131.031317 122.099935 
L 122.745558 128.783266 
L 109.243522 132.850477 
" clip-path="url(#p9fdb3b788c)" style="fill: #2f62fc"/>
    <path d="M 117.529281 126.167146 
L 127.824473 120.215066 
L 141.326509 116.147855 
L 131.031317 122.099935 
L 117.529281 126.167146 
" clip-path="url(#p9fdb3b788c)" style="fill: #2f53fb"/>
    <path d="M 127.824473 120.215066 
L 139.872964 115.142318 
L 153.375 111.075107 
L 141.326509 116.147855 
L 127.824473 120.215066 
" clip-path="url(#p9fdb3b788c)" style="fill: #2c3efa"/>
    <path d="M 139.872964 115.142318 
L 153.375 111.075107 
L 166.877036 107.007896 
L 153.375 111.075107 
L 139.872964 115.142318 
" clip-path="url(#p9fdb3b788c)" style="fill: #2429f3"/>
    <path d="M 153.375 111.075107 
L 167.994664 108.114622 
L 181.4967 104.047411 
L 166.877036 107.007896 
L 153.375 111.075107 
" clip-path="url(#p9fdb3b788c)" style="fill: #1316e0"/>
    <path d="M 167.994664 108.114622 
L 183.368232 106.334516 
L 196.870268 102.267305 
L 181.4967 104.047411 
L 167.994664 108.114622 
" clip-path="url(#p9fdb3b788c)" style="fill: #0708c4"/>
    <path d="M 183.368232 106.334516 
L 199.024895 105.159434 
L 212.526931 101.092224 
L 196.870268 102.267305 
L 183.368232 106.334516 
" clip-path="url(#p9fdb3b788c)" style="fill: #10019d"/>
    <path d="M 212.526931 201.892224 
L 196.870268 200.717142 
L 208.918759 195.644394 
L 224.575422 196.819476 
L 212.526931 201.892224 
" clip-path="url(#p9fdb3b788c)" style="fill: #0904b7"/>
    <path d="M 196.870268 200.717142 
L 181.4967 198.937036 
L 193.545191 193.864288 
L 208.918759 195.644394 
L 196.870268 200.717142 
" clip-path="url(#p9fdb3b788c)" style="fill: #0e12d9"/>
    <path d="M 181.4967 198.937036 
L 166.877036 195.976551 
L 178.925527 190.903803 
L 193.545191 193.864288 
L 181.4967 198.937036 
" clip-path="url(#p9fdb3b788c)" style="fill: #2226f1"/>
    <path d="M 166.877036 195.976551 
L 153.375 191.90934 
L 165.423491 186.836592 
L 178.925527 190.903803 
L 166.877036 195.976551 
" clip-path="url(#p9fdb3b788c)" style="fill: #2c3efa"/>
    <path d="M 153.375 191.90934 
L 141.326509 186.836592 
L 153.375 181.763844 
L 165.423491 186.836592 
L 153.375 191.90934 
" clip-path="url(#p9fdb3b788c)" style="fill: #2f57fb"/>
    <path d="M 141.326509 186.836592 
L 131.031317 180.884512 
L 143.079808 175.811764 
L 153.375 181.763844 
L 141.326509 186.836592 
" clip-path="url(#p9fdb3b788c)" style="fill: #2d6bfd"/>
    <path d="M 131.031317 180.884512 
L 122.745558 174.201181 
L 134.794049 169.128433 
L 143.079808 175.811764 
L 131.031317 180.884512 
" clip-path="url(#p9fdb3b788c)" style="fill: #2b7bfd"/>
    <path d="M 122.745558 174.201181 
L 116.675374 166.952874 
L 128.723865 161.880126 
L 134.794049 169.128433 
L 122.745558 174.201181 
" clip-path="url(#p9fdb3b788c)" style="fill: #2d87fd"/>
    <path d="M 116.675374 166.952874 
L 112.971784 159.319921 
L 125.020275 154.247173 
L 128.723865 161.880126 
L 116.675374 166.952874 
" clip-path="url(#p9fdb3b788c)" style="fill: #3090fd"/>
    <path d="M 112.971784 159.319921 
L 111.726931 151.492224 
L 123.775422 146.419476 
L 125.020275 154.247173 
L 112.971784 159.319921 
" clip-path="url(#p9fdb3b788c)" style="fill: #3395fd"/>
    <path d="M 111.726931 151.492224 
L 112.971784 143.664526 
L 125.020275 138.591778 
L 123.775422 146.419476 
L 111.726931 151.492224 
" clip-path="url(#p9fdb3b788c)" style="fill: #3395fd"/>
    <path d="M 112.971784 143.664526 
L 116.675374 136.031573 
L 128.723865 130.958825 
L 125.020275 138.591778 
L 112.971784 143.664526 
" clip-path="url(#p9fdb3b788c)" style="fill: #3090fd"/>
    <path d="M 116.675374 136.031573 
L 122.745558 128.783266 
L 134.794049 123.710518 
L 128.723865 130.958825 
L 116.675374 136.031573 
" clip-path="url(#p9fdb3b788c)" style="fill: #2d87fd"/>
    <path d="M 122.745558 128.783266 
L 131.031317 122.099935 
L 143.079808 117.027187 
L 134.794049 123.710518 
L 122.745558 128.783266 
" clip-path="url(#p9fdb3b788c)" style="fill: #2b7bfd"/>
    <path d="M 131.031317 122.099935 
L 141.326509 116.147855 
L 153.375 111.075107 
L 143.079808 117.027187 
L 131.031317 122.099935 
" clip-path="url(#p9fdb3b788c)" style="fill: #2d6bfd"/>
    <path d="M 141.326509 116.147855 
L 153.375 111.075107 
L 165.423491 106.002359 
L 153.375 111.075107 
L 141.326509 116.147855 
" clip-path="url(#p9fdb3b788c)" style="fill: #2f57fb"/>
    <path d="M 153.375 111.075107 
L 166.877036 107.007896 
L 178.925527 101.935148 
L 165.423491 106.002359 
L 153.375 111.075107 
" clip-path="url(#p9fdb3b788c)" style="fill: #2c3efa"/>
    <path d="M 166.877036 107.007896 
L 181.4967 104.047411 
L 193.545191 98.974663 
L 178.925527 101.935148 
L 166.877036 107.007896 
" clip-path="url(#p9fdb3b788c)" style="fill: #2226f1"/>
    <path d="M 181.4967 104.047411 
L 196.870268 102.267305 
L 208.918759 97.194557 
L 193.545191 98.974663 
L 181.4967 104.047411 
" clip-path="url(#p9fdb3b788c)" style="fill: #0e12d9"/>
    <path d="M 196.870268 102.267305 
L 212.526931 101.092224 
L 224.575422 96.019476 
L 208.918759 97.194557 
L 196.870268 102.267305 
" clip-path="url(#p9fdb3b788c)" style="fill: #0904b7"/>
    <path d="M 224.575422 196.819476 
L 208.918759 195.644394 
L 219.213951 189.692314 
L 234.870614 190.867395 
L 224.575422 196.819476 
" clip-path="url(#p9fdb3b788c)" style="fill: #070bca"/>
    <path d="M 208.918759 195.644394 
L 193.545191 193.864288 
L 203.840383 187.912208 
L 219.213951 189.692314 
L 208.918759 195.644394 
" clip-path="url(#p9fdb3b788c)" style="fill: #1b1ce9"/>
    <path d="M 193.545191 193.864288 
L 178.925527 190.903803 
L 189.220719 184.951722 
L 203.840383 187.912208 
L 193.545191 193.864288 
" clip-path="url(#p9fdb3b788c)" style="fill: #2a37f9"/>
    <path d="M 178.925527 190.903803 
L 165.423491 186.836592 
L 175.718683 180.884512 
L 189.220719 184.951722 
L 178.925527 190.903803 
" clip-path="url(#p9fdb3b788c)" style="fill: #2f53fb"/>
    <path d="M 165.423491 186.836592 
L 153.375 181.763844 
L 163.670192 175.811764 
L 175.718683 180.884512 
L 165.423491 186.836592 
" clip-path="url(#p9fdb3b788c)" style="fill: #2d6bfd"/>
    <path d="M 153.375 181.763844 
L 143.079808 175.811764 
L 153.375 169.859683 
L 163.670192 175.811764 
L 153.375 181.763844 
" clip-path="url(#p9fdb3b788c)" style="fill: #2b7ffd"/>
    <path d="M 143.079808 175.811764 
L 134.794049 169.128433 
L 145.089241 163.176352 
L 153.375 169.859683 
L 143.079808 175.811764 
" clip-path="url(#p9fdb3b788c)" style="fill: #3090fd"/>
    <path d="M 134.794049 169.128433 
L 128.723865 161.880126 
L 139.019057 155.928045 
L 145.089241 163.176352 
L 134.794049 169.128433 
" clip-path="url(#p9fdb3b788c)" style="fill: #359dfc"/>
    <path d="M 128.723865 161.880126 
L 125.020275 154.247173 
L 135.315467 148.295093 
L 139.019057 155.928045 
L 128.723865 161.880126 
" clip-path="url(#p9fdb3b788c)" style="fill: #35a8fc"/>
    <path d="M 125.020275 154.247173 
L 123.775422 146.419476 
L 134.070614 140.467395 
L 135.315467 148.295093 
L 125.020275 154.247173 
" clip-path="url(#p9fdb3b788c)" style="fill: #33aefc"/>
    <path d="M 123.775422 146.419476 
L 125.020275 138.591778 
L 135.315467 132.639697 
L 134.070614 140.467395 
L 123.775422 146.419476 
" clip-path="url(#p9fdb3b788c)" style="fill: #33aefc"/>
    <path d="M 125.020275 138.591778 
L 128.723865 130.958825 
L 139.019057 125.006745 
L 135.315467 132.639697 
L 125.020275 138.591778 
" clip-path="url(#p9fdb3b788c)" style="fill: #35a8fc"/>
    <path d="M 128.723865 130.958825 
L 134.794049 123.710518 
L 145.089241 117.758438 
L 139.019057 125.006745 
L 128.723865 130.958825 
" clip-path="url(#p9fdb3b788c)" style="fill: #359dfc"/>
    <path d="M 134.794049 123.710518 
L 143.079808 117.027187 
L 153.375 111.075107 
L 145.089241 117.758438 
L 134.794049 123.710518 
" clip-path="url(#p9fdb3b788c)" style="fill: #3090fd"/>
    <path d="M 143.079808 117.027187 
L 153.375 111.075107 
L 163.670192 105.123027 
L 153.375 111.075107 
L 143.079808 117.027187 
" clip-path="url(#p9fdb3b788c)" style="fill: #2b7ffd"/>
    <path d="M 153.375 111.075107 
L 165.423491 106.002359 
L 175.718683 100.050279 
L 163.670192 105.123027 
L 153.375 111.075107 
" clip-path="url(#p9fdb3b788c)" style="fill: #2d6bfd"/>
    <path d="M 165.423491 106.002359 
L 178.925527 101.935148 
L 189.220719 95.983068 
L 175.718683 100.050279 
L 165.423491 106.002359 
" clip-path="url(#p9fdb3b788c)" style="fill: #2f53fb"/>
    <path d="M 178.925527 101.935148 
L 193.545191 98.974663 
L 203.840383 93.022583 
L 189.220719 95.983068 
L 178.925527 101.935148 
" clip-path="url(#p9fdb3b788c)" style="fill: #2a37f9"/>
    <path d="M 193.545191 98.974663 
L 208.918759 97.194557 
L 219.213951 91.242477 
L 203.840383 93.022583 
L 193.545191 98.974663 
" clip-path="url(#p9fdb3b788c)" style="fill: #1b1ce9"/>
    <path d="M 208.918759 97.194557 
L 224.575422 96.019476 
L 234.870614 90.067395 
L 219.213951 91.242477 
L 208.918759 97.194557 
" clip-path="url(#p9fdb3b788c)" style="fill: #070bca"/>
    <path d="M 234.870614 190.867395 
L 219.213951 189.692314 
L 227.49971 183.008983 
L 243.156373 184.184064 
L 234.870614 190.867395 
" clip-path="url(#p9fdb3b788c)" style="fill: #0e12d9"/>
    <path d="M 219.213951 189.692314 
L 203.840383 187.912208 
L 212.126142 181.228877 
L 227.49971 183.008983 
L 219.213951 189.692314 
" clip-path="url(#p9fdb3b788c)" style="fill: #2429f3"/>
    <path d="M 203.840383 187.912208 
L 189.220719 184.951722 
L 197.506478 178.268391 
L 212.126142 181.228877 
L 203.840383 187.912208 
" clip-path="url(#p9fdb3b788c)" style="fill: #2e47fa"/>
    <path d="M 189.220719 184.951722 
L 175.718683 180.884512 
L 184.004442 174.201181 
L 197.506478 178.268391 
L 189.220719 184.951722 
" clip-path="url(#p9fdb3b788c)" style="fill: #2f62fc"/>
    <path d="M 175.718683 180.884512 
L 163.670192 175.811764 
L 171.955951 169.128433 
L 184.004442 174.201181 
L 175.718683 180.884512 
" clip-path="url(#p9fdb3b788c)" style="fill: #2b7bfd"/>
    <path d="M 163.670192 175.811764 
L 153.375 169.859683 
L 161.660759 163.176352 
L 171.955951 169.128433 
L 163.670192 175.811764 
" clip-path="url(#p9fdb3b788c)" style="fill: #3090fd"/>
    <path d="M 153.375 169.859683 
L 145.089241 163.176352 
L 153.375 156.493021 
L 161.660759 163.176352 
L 153.375 169.859683 
" clip-path="url(#p9fdb3b788c)" style="fill: #35a3fc"/>
    <path d="M 145.089241 163.176352 
L 139.019057 155.928045 
L 147.304816 149.244714 
L 153.375 156.493021 
L 145.089241 163.176352 
" clip-path="url(#p9fdb3b788c)" style="fill: #31b3fc"/>
    <path d="M 139.019057 155.928045 
L 135.315467 148.295093 
L 143.601226 141.611762 
L 147.304816 149.244714 
L 139.019057 155.928045 
" clip-path="url(#p9fdb3b788c)" style="fill: #2ac0fb"/>
    <path d="M 135.315467 148.295093 
L 134.070614 140.467395 
L 142.356373 133.784064 
L 143.601226 141.611762 
L 135.315467 148.295093 
" clip-path="url(#p9fdb3b788c)" style="fill: #28c7fb"/>
    <path d="M 134.070614 140.467395 
L 135.315467 132.639697 
L 143.601226 125.956367 
L 142.356373 133.784064 
L 134.070614 140.467395 
" clip-path="url(#p9fdb3b788c)" style="fill: #28c7fb"/>
    <path d="M 135.315467 132.639697 
L 139.019057 125.006745 
L 147.304816 118.323414 
L 143.601226 125.956367 
L 135.315467 132.639697 
" clip-path="url(#p9fdb3b788c)" style="fill: #2ac0fb"/>
    <path d="M 139.019057 125.006745 
L 145.089241 117.758438 
L 153.375 111.075107 
L 147.304816 118.323414 
L 139.019057 125.006745 
" clip-path="url(#p9fdb3b788c)" style="fill: #31b3fc"/>
    <path d="M 145.089241 117.758438 
L 153.375 111.075107 
L 161.660759 104.391776 
L 153.375 111.075107 
L 145.089241 117.758438 
" clip-path="url(#p9fdb3b788c)" style="fill: #35a3fc"/>
    <path d="M 153.375 111.075107 
L 163.670192 105.123027 
L 171.955951 98.439696 
L 161.660759 104.391776 
L 153.375 111.075107 
" clip-path="url(#p9fdb3b788c)" style="fill: #3090fd"/>
    <path d="M 163.670192 105.123027 
L 175.718683 100.050279 
L 184.004442 93.366948 
L 171.955951 98.439696 
L 163.670192 105.123027 
" clip-path="url(#p9fdb3b788c)" style="fill: #2b7bfd"/>
    <path d="M 175.718683 100.050279 
L 189.220719 95.983068 
L 197.506478 89.299737 
L 184.004442 93.366948 
L 175.718683 100.050279 
" clip-path="url(#p9fdb3b788c)" style="fill: #2f62fc"/>
    <path d="M 189.220719 95.983068 
L 203.840383 93.022583 
L 212.126142 86.339252 
L 197.506478 89.299737 
L 189.220719 95.983068 
" clip-path="url(#p9fdb3b788c)" style="fill: #2e47fa"/>
    <path d="M 203.840383 93.022583 
L 219.213951 91.242477 
L 227.49971 84.559146 
L 212.126142 86.339252 
L 203.840383 93.022583 
" clip-path="url(#p9fdb3b788c)" style="fill: #2429f3"/>
    <path d="M 219.213951 91.242477 
L 234.870614 90.067395 
L 243.156373 83.384064 
L 227.49971 84.559146 
L 219.213951 91.242477 
" clip-path="url(#p9fdb3b788c)" style="fill: #0e12d9"/>
    <path d="M 243.156373 184.184064 
L 227.49971 183.008983 
L 233.569895 175.760676 
L 249.226557 176.935757 
L 243.156373 184.184064 
" clip-path="url(#p9fdb3b788c)" style="fill: #1618e3"/>
    <path d="M 227.49971 183.008983 
L 212.126142 181.228877 
L 218.196326 173.98057 
L 233.569895 175.760676 
L 227.49971 183.008983 
" clip-path="url(#p9fdb3b788c)" style="fill: #2934f8"/>
    <path d="M 212.126142 181.228877 
L 197.506478 178.268391 
L 203.576662 171.020084 
L 218.196326 173.98057 
L 212.126142 181.228877 
" clip-path="url(#p9fdb3b788c)" style="fill: #2f53fb"/>
    <path d="M 197.506478 178.268391 
L 184.004442 174.201181 
L 190.074626 166.952874 
L 203.576662 171.020084 
L 197.506478 178.268391 
" clip-path="url(#p9fdb3b788c)" style="fill: #2c6ffd"/>
    <path d="M 184.004442 174.201181 
L 171.955951 169.128433 
L 178.026135 161.880126 
L 190.074626 166.952874 
L 184.004442 174.201181 
" clip-path="url(#p9fdb3b788c)" style="fill: #2d87fd"/>
    <path d="M 171.955951 169.128433 
L 161.660759 163.176352 
L 167.730943 155.928045 
L 178.026135 161.880126 
L 171.955951 169.128433 
" clip-path="url(#p9fdb3b788c)" style="fill: #359dfc"/>
    <path d="M 161.660759 163.176352 
L 153.375 156.493021 
L 159.445184 149.244714 
L 167.730943 155.928045 
L 161.660759 163.176352 
" clip-path="url(#p9fdb3b788c)" style="fill: #31b3fc"/>
    <path d="M 153.375 156.493021 
L 147.304816 149.244714 
L 153.375 141.996407 
L 159.445184 149.244714 
L 153.375 156.493021 
" clip-path="url(#p9fdb3b788c)" style="fill: #28c7fb"/>
    <path d="M 147.304816 149.244714 
L 143.601226 141.611762 
L 149.67141 134.363455 
L 153.375 141.996407 
L 147.304816 149.244714 
" clip-path="url(#p9fdb3b788c)" style="fill: #2bd6fa"/>
    <path d="M 143.601226 141.611762 
L 142.356373 133.784064 
L 148.426557 126.535757 
L 149.67141 134.363455 
L 143.601226 141.611762 
" clip-path="url(#p9fdb3b788c)" style="fill: #38def9"/>
    <path d="M 142.356373 133.784064 
L 143.601226 125.956367 
L 149.67141 118.70806 
L 148.426557 126.535757 
L 142.356373 133.784064 
" clip-path="url(#p9fdb3b788c)" style="fill: #38def9"/>
    <path d="M 143.601226 125.956367 
L 147.304816 118.323414 
L 153.375 111.075107 
L 149.67141 118.70806 
L 143.601226 125.956367 
" clip-path="url(#p9fdb3b788c)" style="fill: #2bd6fa"/>
    <path d="M 147.304816 118.323414 
L 153.375 111.075107 
L 159.445184 103.8268 
L 153.375 111.075107 
L 147.304816 118.323414 
" clip-path="url(#p9fdb3b788c)" style="fill: #28c7fb"/>
    <path d="M 153.375 111.075107 
L 161.660759 104.391776 
L 167.730943 97.143469 
L 159.445184 103.8268 
L 153.375 111.075107 
" clip-path="url(#p9fdb3b788c)" style="fill: #31b3fc"/>
    <path d="M 161.660759 104.391776 
L 171.955951 98.439696 
L 178.026135 91.191389 
L 167.730943 97.143469 
L 161.660759 104.391776 
" clip-path="url(#p9fdb3b788c)" style="fill: #359dfc"/>
    <path d="M 171.955951 98.439696 
L 184.004442 93.366948 
L 190.074626 86.118641 
L 178.026135 91.191389 
L 171.955951 98.439696 
" clip-path="url(#p9fdb3b788c)" style="fill: #2d87fd"/>
    <path d="M 184.004442 93.366948 
L 197.506478 89.299737 
L 203.576662 82.05143 
L 190.074626 86.118641 
L 184.004442 93.366948 
" clip-path="url(#p9fdb3b788c)" style="fill: #2c6ffd"/>
    <path d="M 197.506478 89.299737 
L 212.126142 86.339252 
L 218.196326 79.090945 
L 203.576662 82.05143 
L 197.506478 89.299737 
" clip-path="url(#p9fdb3b788c)" style="fill: #2f53fb"/>
    <path d="M 212.126142 86.339252 
L 227.49971 84.559146 
L 233.569895 77.310839 
L 218.196326 79.090945 
L 212.126142 86.339252 
" clip-path="url(#p9fdb3b788c)" style="fill: #2934f8"/>
    <path d="M 227.49971 84.559146 
L 243.156373 83.384064 
L 249.226557 76.135757 
L 233.569895 77.310839 
L 227.49971 84.559146 
" clip-path="url(#p9fdb3b788c)" style="fill: #1618e3"/>
    <path d="M 249.226557 176.935757 
L 233.569895 175.760676 
L 237.273484 168.127723 
L 252.930147 169.302805 
L 249.226557 176.935757 
" clip-path="url(#p9fdb3b788c)" style="fill: #1b1ce9"/>
    <path d="M 233.569895 175.760676 
L 218.196326 173.98057 
L 221.899915 166.347617 
L 237.273484 168.127723 
L 233.569895 175.760676 
" clip-path="url(#p9fdb3b788c)" style="fill: #2b3bf9"/>
    <path d="M 218.196326 173.98057 
L 203.576662 171.020084 
L 207.280252 163.387132 
L 221.899915 166.347617 
L 218.196326 173.98057 
" clip-path="url(#p9fdb3b788c)" style="fill: #2f5bfc"/>
    <path d="M 203.576662 171.020084 
L 190.074626 166.952874 
L 193.778216 159.319921 
L 207.280252 163.387132 
L 203.576662 171.020084 
" clip-path="url(#p9fdb3b788c)" style="fill: #2b77fd"/>
    <path d="M 190.074626 166.952874 
L 178.026135 161.880126 
L 181.729725 154.247173 
L 193.778216 159.319921 
L 190.074626 166.952874 
" clip-path="url(#p9fdb3b788c)" style="fill: #3090fd"/>
    <path d="M 178.026135 161.880126 
L 167.730943 155.928045 
L 171.434533 148.295093 
L 181.729725 154.247173 
L 178.026135 161.880126 
" clip-path="url(#p9fdb3b788c)" style="fill: #35a8fc"/>
    <path d="M 167.730943 155.928045 
L 159.445184 149.244714 
L 163.148774 141.611762 
L 171.434533 148.295093 
L 167.730943 155.928045 
" clip-path="url(#p9fdb3b788c)" style="fill: #2ac0fb"/>
    <path d="M 159.445184 149.244714 
L 153.375 141.996407 
L 157.07859 134.363455 
L 163.148774 141.611762 
L 159.445184 149.244714 
" clip-path="url(#p9fdb3b788c)" style="fill: #2bd6fa"/>
    <path d="M 153.375 141.996407 
L 149.67141 134.363455 
L 153.375 126.730502 
L 157.07859 134.363455 
L 153.375 141.996407 
" clip-path="url(#p9fdb3b788c)" style="fill: #57e7f8"/>
    <path d="M 149.67141 134.363455 
L 148.426557 126.535757 
L 152.130147 118.902805 
L 153.375 126.730502 
L 149.67141 134.363455 
" clip-path="url(#p9fdb3b788c)" style="fill: #7df1f7"/>
    <path d="M 148.426557 126.535757 
L 149.67141 118.70806 
L 153.375 111.075107 
L 152.130147 118.902805 
L 148.426557 126.535757 
" clip-path="url(#p9fdb3b788c)" style="fill: #7df1f7"/>
    <path d="M 149.67141 118.70806 
L 153.375 111.075107 
L 157.07859 103.442155 
L 153.375 111.075107 
L 149.67141 118.70806 
" clip-path="url(#p9fdb3b788c)" style="fill: #57e7f8"/>
    <path d="M 153.375 111.075107 
L 159.445184 103.8268 
L 163.148774 96.193848 
L 157.07859 103.442155 
L 153.375 111.075107 
" clip-path="url(#p9fdb3b788c)" style="fill: #2bd6fa"/>
    <path d="M 159.445184 103.8268 
L 167.730943 97.143469 
L 171.434533 89.510517 
L 163.148774 96.193848 
L 159.445184 103.8268 
" clip-path="url(#p9fdb3b788c)" style="fill: #2ac0fb"/>
    <path d="M 167.730943 97.143469 
L 178.026135 91.191389 
L 181.729725 83.558436 
L 171.434533 89.510517 
L 167.730943 97.143469 
" clip-path="url(#p9fdb3b788c)" style="fill: #35a8fc"/>
    <path d="M 178.026135 91.191389 
L 190.074626 86.118641 
L 193.778216 78.485688 
L 181.729725 83.558436 
L 178.026135 91.191389 
" clip-path="url(#p9fdb3b788c)" style="fill: #3090fd"/>
    <path d="M 190.074626 86.118641 
L 203.576662 82.05143 
L 207.280252 74.418478 
L 193.778216 78.485688 
L 190.074626 86.118641 
" clip-path="url(#p9fdb3b788c)" style="fill: #2b77fd"/>
    <path d="M 203.576662 82.05143 
L 218.196326 79.090945 
L 221.899915 71.457992 
L 207.280252 74.418478 
L 203.576662 82.05143 
" clip-path="url(#p9fdb3b788c)" style="fill: #2f5bfc"/>
    <path d="M 218.196326 79.090945 
L 233.569895 77.310839 
L 237.273484 69.677886 
L 221.899915 71.457992 
L 218.196326 79.090945 
" clip-path="url(#p9fdb3b788c)" style="fill: #2b3bf9"/>
    <path d="M 233.569895 77.310839 
L 249.226557 76.135757 
L 252.930147 68.502805 
L 237.273484 69.677886 
L 233.569895 77.310839 
" clip-path="url(#p9fdb3b788c)" style="fill: #1b1ce9"/>
    <path d="M 252.930147 169.302805 
L 237.273484 168.127723 
L 238.518338 160.300026 
L 254.175 161.475107 
L 252.930147 169.302805 
" clip-path="url(#p9fdb3b788c)" style="fill: #1d1feb"/>
    <path d="M 237.273484 168.127723 
L 221.899915 166.347617 
L 223.144769 158.51992 
L 238.518338 160.300026 
L 237.273484 168.127723 
" clip-path="url(#p9fdb3b788c)" style="fill: #2c3efa"/>
    <path d="M 221.899915 166.347617 
L 207.280252 163.387132 
L 208.525105 155.559434 
L 223.144769 158.51992 
L 221.899915 166.347617 
" clip-path="url(#p9fdb3b788c)" style="fill: #2f5ffc"/>
    <path d="M 207.280252 163.387132 
L 193.778216 159.319921 
L 195.023069 151.492224 
L 208.525105 155.559434 
L 207.280252 163.387132 
" clip-path="url(#p9fdb3b788c)" style="fill: #2b7bfd"/>
    <path d="M 193.778216 159.319921 
L 181.729725 154.247173 
L 182.974578 146.419476 
L 195.023069 151.492224 
L 193.778216 159.319921 
" clip-path="url(#p9fdb3b788c)" style="fill: #3395fd"/>
    <path d="M 181.729725 154.247173 
L 171.434533 148.295093 
L 172.679386 140.467395 
L 182.974578 146.419476 
L 181.729725 154.247173 
" clip-path="url(#p9fdb3b788c)" style="fill: #33aefc"/>
    <path d="M 171.434533 148.295093 
L 163.148774 141.611762 
L 164.393627 133.784064 
L 172.679386 140.467395 
L 171.434533 148.295093 
" clip-path="url(#p9fdb3b788c)" style="fill: #28c7fb"/>
    <path d="M 163.148774 141.611762 
L 157.07859 134.363455 
L 158.323443 126.535757 
L 164.393627 133.784064 
L 163.148774 141.611762 
" clip-path="url(#p9fdb3b788c)" style="fill: #38def9"/>
    <path d="M 157.07859 134.363455 
L 153.375 126.730502 
L 154.619853 118.902805 
L 158.323443 126.535757 
L 157.07859 134.363455 
" clip-path="url(#p9fdb3b788c)" style="fill: #7df1f7"/>
    <path d="M 153.375 126.730502 
L 152.130147 118.902805 
L 153.375 111.075107 
L 154.619853 118.902805 
L 153.375 126.730502 
" clip-path="url(#p9fdb3b788c)" style="fill: #b3fef5"/>
    <path d="M 152.130147 118.902805 
L 153.375 111.075107 
L 154.619853 103.247409 
L 153.375 111.075107 
L 152.130147 118.902805 
" clip-path="url(#p9fdb3b788c)" style="fill: #b3fef5"/>
    <path d="M 153.375 111.075107 
L 157.07859 103.442155 
L 158.323443 95.614457 
L 154.619853 103.247409 
L 153.375 111.075107 
" clip-path="url(#p9fdb3b788c)" style="fill: #7df1f7"/>
    <path d="M 157.07859 103.442155 
L 163.148774 96.193848 
L 164.393627 88.36615 
L 158.323443 95.614457 
L 157.07859 103.442155 
" clip-path="url(#p9fdb3b788c)" style="fill: #38def9"/>
    <path d="M 163.148774 96.193848 
L 171.434533 89.510517 
L 172.679386 81.682819 
L 164.393627 88.36615 
L 163.148774 96.193848 
" clip-path="url(#p9fdb3b788c)" style="fill: #28c7fb"/>
    <path d="M 171.434533 89.510517 
L 181.729725 83.558436 
L 182.974578 75.730738 
L 172.679386 81.682819 
L 171.434533 89.510517 
" clip-path="url(#p9fdb3b788c)" style="fill: #33aefc"/>
    <path d="M 181.729725 83.558436 
L 193.778216 78.485688 
L 195.023069 70.65799 
L 182.974578 75.730738 
L 181.729725 83.558436 
" clip-path="url(#p9fdb3b788c)" style="fill: #3395fd"/>
    <path d="M 193.778216 78.485688 
L 207.280252 74.418478 
L 208.525105 66.59078 
L 195.023069 70.65799 
L 193.778216 78.485688 
" clip-path="url(#p9fdb3b788c)" style="fill: #2b7bfd"/>
    <path d="M 207.280252 74.418478 
L 221.899915 71.457992 
L 223.144769 63.630294 
L 208.525105 66.59078 
L 207.280252 74.418478 
" clip-path="url(#p9fdb3b788c)" style="fill: #2f5ffc"/>
    <path d="M 221.899915 71.457992 
L 237.273484 69.677886 
L 238.518338 61.850188 
L 223.144769 63.630294 
L 221.899915 71.457992 
" clip-path="url(#p9fdb3b788c)" style="fill: #2c3efa"/>
    <path d="M 237.273484 69.677886 
L 252.930147 68.502805 
L 254.175 60.675107 
L 238.518338 61.850188 
L 237.273484 69.677886 
" clip-path="url(#p9fdb3b788c)" style="fill: #1d1feb"/>
    <path d="M 254.175 161.475107 
L 238.518338 160.300026 
L 237.273484 152.472328 
L 252.930147 153.647409 
L 254.175 161.475107 
" clip-path="url(#p9fdb3b788c)" style="fill: #1d1feb"/>
    <path d="M 238.518338 160.300026 
L 223.144769 158.51992 
L 221.899915 150.692222 
L 237.273484 152.472328 
L 238.518338 160.300026 
" clip-path="url(#p9fdb3b788c)" style="fill: #2c3efa"/>
    <path d="M 223.144769 158.51992 
L 208.525105 155.559434 
L 207.280252 147.731737 
L 221.899915 150.692222 
L 223.144769 158.51992 
" clip-path="url(#p9fdb3b788c)" style="fill: #2f5ffc"/>
    <path d="M 208.525105 155.559434 
L 195.023069 151.492224 
L 193.778216 143.664526 
L 207.280252 147.731737 
L 208.525105 155.559434 
" clip-path="url(#p9fdb3b788c)" style="fill: #2b7bfd"/>
    <path d="M 195.023069 151.492224 
L 182.974578 146.419476 
L 181.729725 138.591778 
L 193.778216 143.664526 
L 195.023069 151.492224 
" clip-path="url(#p9fdb3b788c)" style="fill: #3395fd"/>
    <path d="M 182.974578 146.419476 
L 172.679386 140.467395 
L 171.434533 132.639697 
L 181.729725 138.591778 
L 182.974578 146.419476 
" clip-path="url(#p9fdb3b788c)" style="fill: #33aefc"/>
    <path d="M 172.679386 140.467395 
L 164.393627 133.784064 
L 163.148774 125.956367 
L 171.434533 132.639697 
L 172.679386 140.467395 
" clip-path="url(#p9fdb3b788c)" style="fill: #28c7fb"/>
    <path d="M 164.393627 133.784064 
L 158.323443 126.535757 
L 157.07859 118.70806 
L 163.148774 125.956367 
L 164.393627 133.784064 
" clip-path="url(#p9fdb3b788c)" style="fill: #38def9"/>
    <path d="M 158.323443 126.535757 
L 154.619853 118.902805 
L 153.375 111.075107 
L 157.07859 118.70806 
L 158.323443 126.535757 
" clip-path="url(#p9fdb3b788c)" style="fill: #7df1f7"/>
    <path d="M 154.619853 118.902805 
L 153.375 111.075107 
L 152.130147 103.247409 
L 153.375 111.075107 
L 154.619853 118.902805 
" clip-path="url(#p9fdb3b788c)" style="fill: #b3fef5"/>
    <path d="M 153.375 111.075107 
L 154.619853 103.247409 
L 153.375 95.419712 
L 152.130147 103.247409 
L 153.375 111.075107 
" clip-path="url(#p9fdb3b788c)" style="fill: #b3fef5"/>
    <path d="M 154.619853 103.247409 
L 158.323443 95.614457 
L 157.07859 87.786759 
L 153.375 95.419712 
L 154.619853 103.247409 
" clip-path="url(#p9fdb3b788c)" style="fill: #7df1f7"/>
    <path d="M 158.323443 95.614457 
L 164.393627 88.36615 
L 163.148774 80.538452 
L 157.07859 87.786759 
L 158.323443 95.614457 
" clip-path="url(#p9fdb3b788c)" style="fill: #38def9"/>
    <path d="M 164.393627 88.36615 
L 172.679386 81.682819 
L 171.434533 73.855121 
L 163.148774 80.538452 
L 164.393627 88.36615 
" clip-path="url(#p9fdb3b788c)" style="fill: #28c7fb"/>
    <path d="M 172.679386 81.682819 
L 182.974578 75.730738 
L 181.729725 67.903041 
L 171.434533 73.855121 
L 172.679386 81.682819 
" clip-path="url(#p9fdb3b788c)" style="fill: #33aefc"/>
    <path d="M 182.974578 75.730738 
L 195.023069 70.65799 
L 193.778216 62.830293 
L 181.729725 67.903041 
L 182.974578 75.730738 
" clip-path="url(#p9fdb3b788c)" style="fill: #3395fd"/>
    <path d="M 195.023069 70.65799 
L 208.525105 66.59078 
L 207.280252 58.763082 
L 193.778216 62.830293 
L 195.023069 70.65799 
" clip-path="url(#p9fdb3b788c)" style="fill: #2b7bfd"/>
    <path d="M 208.525105 66.59078 
L 223.144769 63.630294 
L 221.899915 55.802597 
L 207.280252 58.763082 
L 208.525105 66.59078 
" clip-path="url(#p9fdb3b788c)" style="fill: #2f5ffc"/>
    <path d="M 223.144769 63.630294 
L 238.518338 61.850188 
L 237.273484 54.022491 
L 221.899915 55.802597 
L 223.144769 63.630294 
" clip-path="url(#p9fdb3b788c)" style="fill: #2c3efa"/>
    <path d="M 238.518338 61.850188 
L 254.175 60.675107 
L 252.930147 52.847409 
L 237.273484 54.022491 
L 238.518338 61.850188 
" clip-path="url(#p9fdb3b788c)" style="fill: #1d1feb"/>
    <path d="M 252.930147 153.647409 
L 237.273484 152.472328 
L 233.569895 144.839375 
L 249.226557 146.014457 
L 252.930147 153.647409 
" clip-path="url(#p9fdb3b788c)" style="fill: #1b1ce9"/>
    <path d="M 237.273484 152.472328 
L 221.899915 150.692222 
L 218.196326 143.059269 
L 233.569895 144.839375 
L 237.273484 152.472328 
" clip-path="url(#p9fdb3b788c)" style="fill: #2b3bf9"/>
    <path d="M 221.899915 150.692222 
L 207.280252 147.731737 
L 203.576662 140.098784 
L 218.196326 143.059269 
L 221.899915 150.692222 
" clip-path="url(#p9fdb3b788c)" style="fill: #2f5bfc"/>
    <path d="M 207.280252 147.731737 
L 193.778216 143.664526 
L 190.074626 136.031573 
L 203.576662 140.098784 
L 207.280252 147.731737 
" clip-path="url(#p9fdb3b788c)" style="fill: #2b77fd"/>
    <path d="M 193.778216 143.664526 
L 181.729725 138.591778 
L 178.026135 130.958825 
L 190.074626 136.031573 
L 193.778216 143.664526 
" clip-path="url(#p9fdb3b788c)" style="fill: #3090fd"/>
    <path d="M 181.729725 138.591778 
L 171.434533 132.639697 
L 167.730943 125.006745 
L 178.026135 130.958825 
L 181.729725 138.591778 
" clip-path="url(#p9fdb3b788c)" style="fill: #35a8fc"/>
    <path d="M 171.434533 132.639697 
L 163.148774 125.956367 
L 159.445184 118.323414 
L 167.730943 125.006745 
L 171.434533 132.639697 
" clip-path="url(#p9fdb3b788c)" style="fill: #2ac0fb"/>
    <path d="M 163.148774 125.956367 
L 157.07859 118.70806 
L 153.375 111.075107 
L 159.445184 118.323414 
L 163.148774 125.956367 
" clip-path="url(#p9fdb3b788c)" style="fill: #2bd6fa"/>
    <path d="M 157.07859 118.70806 
L 153.375 111.075107 
L 149.67141 103.442155 
L 153.375 111.075107 
L 157.07859 118.70806 
" clip-path="url(#p9fdb3b788c)" style="fill: #57e7f8"/>
    <path d="M 153.375 111.075107 
L 152.130147 103.247409 
L 148.426557 95.614457 
L 149.67141 103.442155 
L 153.375 111.075107 
" clip-path="url(#p9fdb3b788c)" style="fill: #7df1f7"/>
    <path d="M 152.130147 103.247409 
L 153.375 95.419712 
L 149.67141 87.786759 
L 148.426557 95.614457 
L 152.130147 103.247409 
" clip-path="url(#p9fdb3b788c)" style="fill: #7df1f7"/>
    <path d="M 153.375 95.419712 
L 157.07859 87.786759 
L 153.375 80.153807 
L 149.67141 87.786759 
L 153.375 95.419712 
" clip-path="url(#p9fdb3b788c)" style="fill: #57e7f8"/>
    <path d="M 157.07859 87.786759 
L 163.148774 80.538452 
L 159.445184 72.9055 
L 153.375 80.153807 
L 157.07859 87.786759 
" clip-path="url(#p9fdb3b788c)" style="fill: #2bd6fa"/>
    <path d="M 163.148774 80.538452 
L 171.434533 73.855121 
L 167.730943 66.222169 
L 159.445184 72.9055 
L 163.148774 80.538452 
" clip-path="url(#p9fdb3b788c)" style="fill: #2ac0fb"/>
    <path d="M 171.434533 73.855121 
L 181.729725 67.903041 
L 178.026135 60.270088 
L 167.730943 66.222169 
L 171.434533 73.855121 
" clip-path="url(#p9fdb3b788c)" style="fill: #35a8fc"/>
    <path d="M 181.729725 67.903041 
L 193.778216 62.830293 
L 190.074626 55.19734 
L 178.026135 60.270088 
L 181.729725 67.903041 
" clip-path="url(#p9fdb3b788c)" style="fill: #3090fd"/>
    <path d="M 193.778216 62.830293 
L 207.280252 58.763082 
L 203.576662 51.13013 
L 190.074626 55.19734 
L 193.778216 62.830293 
" clip-path="url(#p9fdb3b788c)" style="fill: #2b77fd"/>
    <path d="M 207.280252 58.763082 
L 221.899915 55.802597 
L 218.196326 48.169644 
L 203.576662 51.13013 
L 207.280252 58.763082 
" clip-path="url(#p9fdb3b788c)" style="fill: #2f5bfc"/>
    <path d="M 221.899915 55.802597 
L 237.273484 54.022491 
L 233.569895 46.389538 
L 218.196326 48.169644 
L 221.899915 55.802597 
" clip-path="url(#p9fdb3b788c)" style="fill: #2b3bf9"/>
    <path d="M 237.273484 54.022491 
L 252.930147 52.847409 
L 249.226557 45.214457 
L 233.569895 46.389538 
L 237.273484 54.022491 
" clip-path="url(#p9fdb3b788c)" style="fill: #1b1ce9"/>
    <path d="M 249.226557 146.014457 
L 233.569895 144.839375 
L 227.49971 137.591068 
L 243.156373 138.76615 
L 249.226557 146.014457 
" clip-path="url(#p9fdb3b788c)" style="fill: #1618e3"/>
    <path d="M 233.569895 144.839375 
L 218.196326 143.059269 
L 212.126142 135.810962 
L 227.49971 137.591068 
L 233.569895 144.839375 
" clip-path="url(#p9fdb3b788c)" style="fill: #2934f8"/>
    <path d="M 218.196326 143.059269 
L 203.576662 140.098784 
L 197.506478 132.850477 
L 212.126142 135.810962 
L 218.196326 143.059269 
" clip-path="url(#p9fdb3b788c)" style="fill: #2f53fb"/>
    <path d="M 203.576662 140.098784 
L 190.074626 136.031573 
L 184.004442 128.783266 
L 197.506478 132.850477 
L 203.576662 140.098784 
" clip-path="url(#p9fdb3b788c)" style="fill: #2c6ffd"/>
    <path d="M 190.074626 136.031573 
L 178.026135 130.958825 
L 171.955951 123.710518 
L 184.004442 128.783266 
L 190.074626 136.031573 
" clip-path="url(#p9fdb3b788c)" style="fill: #2d87fd"/>
    <path d="M 178.026135 130.958825 
L 167.730943 125.006745 
L 161.660759 117.758438 
L 171.955951 123.710518 
L 178.026135 130.958825 
" clip-path="url(#p9fdb3b788c)" style="fill: #359dfc"/>
    <path d="M 167.730943 125.006745 
L 159.445184 118.323414 
L 153.375 111.075107 
L 161.660759 117.758438 
L 167.730943 125.006745 
" clip-path="url(#p9fdb3b788c)" style="fill: #31b3fc"/>
    <path d="M 159.445184 118.323414 
L 153.375 111.075107 
L 147.304816 103.8268 
L 153.375 111.075107 
L 159.445184 118.323414 
" clip-path="url(#p9fdb3b788c)" style="fill: #28c7fb"/>
    <path d="M 153.375 111.075107 
L 149.67141 103.442155 
L 143.601226 96.193848 
L 147.304816 103.8268 
L 153.375 111.075107 
" clip-path="url(#p9fdb3b788c)" style="fill: #2bd6fa"/>
    <path d="M 149.67141 103.442155 
L 148.426557 95.614457 
L 142.356373 88.36615 
L 143.601226 96.193848 
L 149.67141 103.442155 
" clip-path="url(#p9fdb3b788c)" style="fill: #38def9"/>
    <path d="M 148.426557 95.614457 
L 149.67141 87.786759 
L 143.601226 80.538452 
L 142.356373 88.36615 
L 148.426557 95.614457 
" clip-path="url(#p9fdb3b788c)" style="fill: #38def9"/>
    <path d="M 149.67141 87.786759 
L 153.375 80.153807 
L 147.304816 72.9055 
L 143.601226 80.538452 
L 149.67141 87.786759 
" clip-path="url(#p9fdb3b788c)" style="fill: #2bd6fa"/>
    <path d="M 153.375 80.153807 
L 159.445184 72.9055 
L 153.375 65.657193 
L 147.304816 72.9055 
L 153.375 80.153807 
" clip-path="url(#p9fdb3b788c)" style="fill: #28c7fb"/>
    <path d="M 159.445184 72.9055 
L 167.730943 66.222169 
L 161.660759 58.973862 
L 153.375 65.657193 
L 159.445184 72.9055 
" clip-path="url(#p9fdb3b788c)" style="fill: #31b3fc"/>
    <path d="M 167.730943 66.222169 
L 178.026135 60.270088 
L 171.955951 53.021781 
L 161.660759 58.973862 
L 167.730943 66.222169 
" clip-path="url(#p9fdb3b788c)" style="fill: #359dfc"/>
    <path d="M 178.026135 60.270088 
L 190.074626 55.19734 
L 184.004442 47.949033 
L 171.955951 53.021781 
L 178.026135 60.270088 
" clip-path="url(#p9fdb3b788c)" style="fill: #2d87fd"/>
    <path d="M 190.074626 55.19734 
L 203.576662 51.13013 
L 197.506478 43.881823 
L 184.004442 47.949033 
L 190.074626 55.19734 
" clip-path="url(#p9fdb3b788c)" style="fill: #2c6ffd"/>
    <path d="M 203.576662 51.13013 
L 218.196326 48.169644 
L 212.126142 40.921337 
L 197.506478 43.881823 
L 203.576662 51.13013 
" clip-path="url(#p9fdb3b788c)" style="fill: #2f53fb"/>
    <path d="M 218.196326 48.169644 
L 233.569895 46.389538 
L 227.49971 39.141231 
L 212.126142 40.921337 
L 218.196326 48.169644 
" clip-path="url(#p9fdb3b788c)" style="fill: #2934f8"/>
    <path d="M 233.569895 46.389538 
L 249.226557 45.214457 
L 243.156373 37.96615 
L 227.49971 39.141231 
L 233.569895 46.389538 
" clip-path="url(#p9fdb3b788c)" style="fill: #1618e3"/>
    <path d="M 243.156373 138.76615 
L 227.49971 137.591068 
L 219.213951 130.907737 
L 234.870614 132.082819 
L 243.156373 138.76615 
" clip-path="url(#p9fdb3b788c)" style="fill: #0e12d9"/>
    <path d="M 227.49971 137.591068 
L 212.126142 135.810962 
L 203.840383 129.127631 
L 219.213951 130.907737 
L 227.49971 137.591068 
" clip-path="url(#p9fdb3b788c)" style="fill: #2429f3"/>
    <path d="M 212.126142 135.810962 
L 197.506478 132.850477 
L 189.220719 126.167146 
L 203.840383 129.127631 
L 212.126142 135.810962 
" clip-path="url(#p9fdb3b788c)" style="fill: #2e47fa"/>
    <path d="M 197.506478 132.850477 
L 184.004442 128.783266 
L 175.718683 122.099935 
L 189.220719 126.167146 
L 197.506478 132.850477 
" clip-path="url(#p9fdb3b788c)" style="fill: #2f62fc"/>
    <path d="M 184.004442 128.783266 
L 171.955951 123.710518 
L 163.670192 117.027187 
L 175.718683 122.099935 
L 184.004442 128.783266 
" clip-path="url(#p9fdb3b788c)" style="fill: #2b7bfd"/>
    <path d="M 171.955951 123.710518 
L 161.660759 117.758438 
L 153.375 111.075107 
L 163.670192 117.027187 
L 171.955951 123.710518 
" clip-path="url(#p9fdb3b788c)" style="fill: #3090fd"/>
    <path d="M 161.660759 117.758438 
L 153.375 111.075107 
L 145.089241 104.391776 
L 153.375 111.075107 
L 161.660759 117.758438 
" clip-path="url(#p9fdb3b788c)" style="fill: #35a3fc"/>
    <path d="M 153.375 111.075107 
L 147.304816 103.8268 
L 139.019057 97.143469 
L 145.089241 104.391776 
L 153.375 111.075107 
" clip-path="url(#p9fdb3b788c)" style="fill: #31b3fc"/>
    <path d="M 147.304816 103.8268 
L 143.601226 96.193848 
L 135.315467 89.510517 
L 139.019057 97.143469 
L 147.304816 103.8268 
" clip-path="url(#p9fdb3b788c)" style="fill: #2ac0fb"/>
    <path d="M 143.601226 96.193848 
L 142.356373 88.36615 
L 134.070614 81.682819 
L 135.315467 89.510517 
L 143.601226 96.193848 
" clip-path="url(#p9fdb3b788c)" style="fill: #28c7fb"/>
    <path d="M 142.356373 88.36615 
L 143.601226 80.538452 
L 135.315467 73.855121 
L 134.070614 81.682819 
L 142.356373 88.36615 
" clip-path="url(#p9fdb3b788c)" style="fill: #28c7fb"/>
    <path d="M 143.601226 80.538452 
L 147.304816 72.9055 
L 139.019057 66.222169 
L 135.315467 73.855121 
L 143.601226 80.538452 
" clip-path="url(#p9fdb3b788c)" style="fill: #2ac0fb"/>
    <path d="M 147.304816 72.9055 
L 153.375 65.657193 
L 145.089241 58.973862 
L 139.019057 66.222169 
L 147.304816 72.9055 
" clip-path="url(#p9fdb3b788c)" style="fill: #31b3fc"/>
    <path d="M 153.375 65.657193 
L 161.660759 58.973862 
L 153.375 52.290531 
L 145.089241 58.973862 
L 153.375 65.657193 
" clip-path="url(#p9fdb3b788c)" style="fill: #35a3fc"/>
    <path d="M 161.660759 58.973862 
L 171.955951 53.021781 
L 163.670192 46.33845 
L 153.375 52.290531 
L 161.660759 58.973862 
" clip-path="url(#p9fdb3b788c)" style="fill: #3090fd"/>
    <path d="M 171.955951 53.021781 
L 184.004442 47.949033 
L 175.718683 41.265702 
L 163.670192 46.33845 
L 171.955951 53.021781 
" clip-path="url(#p9fdb3b788c)" style="fill: #2b7bfd"/>
    <path d="M 184.004442 47.949033 
L 197.506478 43.881823 
L 189.220719 37.198492 
L 175.718683 41.265702 
L 184.004442 47.949033 
" clip-path="url(#p9fdb3b788c)" style="fill: #2f62fc"/>
    <path d="M 197.506478 43.881823 
L 212.126142 40.921337 
L 203.840383 34.238006 
L 189.220719 37.198492 
L 197.506478 43.881823 
" clip-path="url(#p9fdb3b788c)" style="fill: #2e47fa"/>
    <path d="M 212.126142 40.921337 
L 227.49971 39.141231 
L 219.213951 32.4579 
L 203.840383 34.238006 
L 212.126142 40.921337 
" clip-path="url(#p9fdb3b788c)" style="fill: #2429f3"/>
    <path d="M 227.49971 39.141231 
L 243.156373 37.96615 
L 234.870614 31.282819 
L 219.213951 32.4579 
L 227.49971 39.141231 
" clip-path="url(#p9fdb3b788c)" style="fill: #0e12d9"/>
    <path d="M 234.870614 132.082819 
L 219.213951 130.907737 
L 208.918759 124.955657 
L 224.575422 126.130738 
L 234.870614 132.082819 
" clip-path="url(#p9fdb3b788c)" style="fill: #070bca"/>
    <path d="M 219.213951 130.907737 
L 203.840383 129.127631 
L 193.545191 123.175551 
L 208.918759 124.955657 
L 219.213951 130.907737 
" clip-path="url(#p9fdb3b788c)" style="fill: #1b1ce9"/>
    <path d="M 203.840383 129.127631 
L 189.220719 126.167146 
L 178.925527 120.215066 
L 193.545191 123.175551 
L 203.840383 129.127631 
" clip-path="url(#p9fdb3b788c)" style="fill: #2a37f9"/>
    <path d="M 189.220719 126.167146 
L 175.718683 122.099935 
L 165.423491 116.147855 
L 178.925527 120.215066 
L 189.220719 126.167146 
" clip-path="url(#p9fdb3b788c)" style="fill: #2f53fb"/>
    <path d="M 175.718683 122.099935 
L 163.670192 117.027187 
L 153.375 111.075107 
L 165.423491 116.147855 
L 175.718683 122.099935 
" clip-path="url(#p9fdb3b788c)" style="fill: #2d6bfd"/>
    <path d="M 163.670192 117.027187 
L 153.375 111.075107 
L 143.079808 105.123027 
L 153.375 111.075107 
L 163.670192 117.027187 
" clip-path="url(#p9fdb3b788c)" style="fill: #2b7ffd"/>
    <path d="M 153.375 111.075107 
L 145.089241 104.391776 
L 134.794049 98.439696 
L 143.079808 105.123027 
L 153.375 111.075107 
" clip-path="url(#p9fdb3b788c)" style="fill: #3090fd"/>
    <path d="M 145.089241 104.391776 
L 139.019057 97.143469 
L 128.723865 91.191389 
L 134.794049 98.439696 
L 145.089241 104.391776 
" clip-path="url(#p9fdb3b788c)" style="fill: #359dfc"/>
    <path d="M 139.019057 97.143469 
L 135.315467 89.510517 
L 125.020275 83.558436 
L 128.723865 91.191389 
L 139.019057 97.143469 
" clip-path="url(#p9fdb3b788c)" style="fill: #35a8fc"/>
    <path d="M 135.315467 89.510517 
L 134.070614 81.682819 
L 123.775422 75.730738 
L 125.020275 83.558436 
L 135.315467 89.510517 
" clip-path="url(#p9fdb3b788c)" style="fill: #33aefc"/>
    <path d="M 134.070614 81.682819 
L 135.315467 73.855121 
L 125.020275 67.903041 
L 123.775422 75.730738 
L 134.070614 81.682819 
" clip-path="url(#p9fdb3b788c)" style="fill: #33aefc"/>
    <path d="M 135.315467 73.855121 
L 139.019057 66.222169 
L 128.723865 60.270088 
L 125.020275 67.903041 
L 135.315467 73.855121 
" clip-path="url(#p9fdb3b788c)" style="fill: #35a8fc"/>
    <path d="M 139.019057 66.222169 
L 145.089241 58.973862 
L 134.794049 53.021781 
L 128.723865 60.270088 
L 139.019057 66.222169 
" clip-path="url(#p9fdb3b788c)" style="fill: #359dfc"/>
    <path d="M 145.089241 58.973862 
L 153.375 52.290531 
L 143.079808 46.33845 
L 134.794049 53.021781 
L 145.089241 58.973862 
" clip-path="url(#p9fdb3b788c)" style="fill: #3090fd"/>
    <path d="M 153.375 52.290531 
L 163.670192 46.33845 
L 153.375 40.38637 
L 143.079808 46.33845 
L 153.375 52.290531 
" clip-path="url(#p9fdb3b788c)" style="fill: #2b7ffd"/>
    <path d="M 163.670192 46.33845 
L 175.718683 41.265702 
L 165.423491 35.313622 
L 153.375 40.38637 
L 163.670192 46.33845 
" clip-path="url(#p9fdb3b788c)" style="fill: #2d6bfd"/>
    <path d="M 175.718683 41.265702 
L 189.220719 37.198492 
L 178.925527 31.246411 
L 165.423491 35.313622 
L 175.718683 41.265702 
" clip-path="url(#p9fdb3b788c)" style="fill: #2f53fb"/>
    <path d="M 189.220719 37.198492 
L 203.840383 34.238006 
L 193.545191 28.285926 
L 178.925527 31.246411 
L 189.220719 37.198492 
" clip-path="url(#p9fdb3b788c)" style="fill: #2a37f9"/>
    <path d="M 203.840383 34.238006 
L 219.213951 32.4579 
L 208.918759 26.50582 
L 193.545191 28.285926 
L 203.840383 34.238006 
" clip-path="url(#p9fdb3b788c)" style="fill: #1b1ce9"/>
    <path d="M 219.213951 32.4579 
L 234.870614 31.282819 
L 224.575422 25.330738 
L 208.918759 26.50582 
L 219.213951 32.4579 
" clip-path="url(#p9fdb3b788c)" style="fill: #070bca"/>
    <path d="M 224.575422 126.130738 
L 208.918759 124.955657 
L 196.870268 119.882909 
L 212.526931 121.05799 
L 224.575422 126.130738 
" clip-path="url(#p9fdb3b788c)" style="fill: #0904b7"/>
    <path d="M 208.918759 124.955657 
L 193.545191 123.175551 
L 181.4967 118.102803 
L 196.870268 119.882909 
L 208.918759 124.955657 
" clip-path="url(#p9fdb3b788c)" style="fill: #0e12d9"/>
    <path d="M 193.545191 123.175551 
L 178.925527 120.215066 
L 166.877036 115.142318 
L 181.4967 118.102803 
L 193.545191 123.175551 
" clip-path="url(#p9fdb3b788c)" style="fill: #2226f1"/>
    <path d="M 178.925527 120.215066 
L 165.423491 116.147855 
L 153.375 111.075107 
L 166.877036 115.142318 
L 178.925527 120.215066 
" clip-path="url(#p9fdb3b788c)" style="fill: #2c3efa"/>
    <path d="M 165.423491 116.147855 
L 153.375 111.075107 
L 141.326509 106.002359 
L 153.375 111.075107 
L 165.423491 116.147855 
" clip-path="url(#p9fdb3b788c)" style="fill: #2f57fb"/>
    <path d="M 153.375 111.075107 
L 143.079808 105.123027 
L 131.031317 100.050279 
L 141.326509 106.002359 
L 153.375 111.075107 
" clip-path="url(#p9fdb3b788c)" style="fill: #2d6bfd"/>
    <path d="M 143.079808 105.123027 
L 134.794049 98.439696 
L 122.745558 93.366948 
L 131.031317 100.050279 
L 143.079808 105.123027 
" clip-path="url(#p9fdb3b788c)" style="fill: #2b7bfd"/>
    <path d="M 134.794049 98.439696 
L 128.723865 91.191389 
L 116.675374 86.118641 
L 122.745558 93.366948 
L 134.794049 98.439696 
" clip-path="url(#p9fdb3b788c)" style="fill: #2d87fd"/>
    <path d="M 128.723865 91.191389 
L 125.020275 83.558436 
L 112.971784 78.485688 
L 116.675374 86.118641 
L 128.723865 91.191389 
" clip-path="url(#p9fdb3b788c)" style="fill: #3090fd"/>
    <path d="M 125.020275 83.558436 
L 123.775422 75.730738 
L 111.726931 70.65799 
L 112.971784 78.485688 
L 125.020275 83.558436 
" clip-path="url(#p9fdb3b788c)" style="fill: #3395fd"/>
    <path d="M 123.775422 75.730738 
L 125.020275 67.903041 
L 112.971784 62.830293 
L 111.726931 70.65799 
L 123.775422 75.730738 
" clip-path="url(#p9fdb3b788c)" style="fill: #3395fd"/>
    <path d="M 125.020275 67.903041 
L 128.723865 60.270088 
L 116.675374 55.19734 
L 112.971784 62.830293 
L 125.020275 67.903041 
" clip-path="url(#p9fdb3b788c)" style="fill: #3090fd"/>
    <path d="M 128.723865 60.270088 
L 134.794049 53.021781 
L 122.745558 47.949033 
L 116.675374 55.19734 
L 128.723865 60.270088 
" clip-path="url(#p9fdb3b788c)" style="fill: #2d87fd"/>
    <path d="M 134.794049 53.021781 
L 143.079808 46.33845 
L 131.031317 41.265702 
L 122.745558 47.949033 
L 134.794049 53.021781 
" clip-path="url(#p9fdb3b788c)" style="fill: #2b7bfd"/>
    <path d="M 143.079808 46.33845 
L 153.375 40.38637 
L 141.326509 35.313622 
L 131.031317 41.265702 
L 143.079808 46.33845 
" clip-path="url(#p9fdb3b788c)" style="fill: #2d6bfd"/>
    <path d="M 153.375 40.38637 
L 165.423491 35.313622 
L 153.375 30.240874 
L 141.326509 35.313622 
L 153.375 40.38637 
" clip-path="url(#p9fdb3b788c)" style="fill: #2f57fb"/>
    <path d="M 165.423491 35.313622 
L 178.925527 31.246411 
L 166.877036 26.173663 
L 153.375 30.240874 
L 165.423491 35.313622 
" clip-path="url(#p9fdb3b788c)" style="fill: #2c3efa"/>
    <path d="M 178.925527 31.246411 
L 193.545191 28.285926 
L 181.4967 23.213178 
L 166.877036 26.173663 
L 178.925527 31.246411 
" clip-path="url(#p9fdb3b788c)" style="fill: #2226f1"/>
    <path d="M 193.545191 28.285926 
L 208.918759 26.50582 
L 196.870268 21.433072 
L 181.4967 23.213178 
L 193.545191 28.285926 
" clip-path="url(#p9fdb3b788c)" style="fill: #0e12d9"/>
    <path d="M 208.918759 26.50582 
L 224.575422 25.330738 
L 212.526931 20.25799 
L 196.870268 21.433072 
L 208.918759 26.50582 
" clip-path="url(#p9fdb3b788c)" style="fill: #0904b7"/>
    <path d="M 212.526931 121.05799 
L 196.870268 119.882909 
L 183.368232 115.815698 
L 199.024895 116.99078 
L 212.526931 121.05799 
" clip-path="url(#p9fdb3b788c)" style="fill: #10019d"/>
    <path d="M 196.870268 119.882909 
L 181.4967 118.102803 
L 167.994664 114.035592 
L 183.368232 115.815698 
L 196.870268 119.882909 
" clip-path="url(#p9fdb3b788c)" style="fill: #0708c4"/>
    <path d="M 181.4967 118.102803 
L 166.877036 115.142318 
L 153.375 111.075107 
L 167.994664 114.035592 
L 181.4967 118.102803 
" clip-path="url(#p9fdb3b788c)" style="fill: #1316e0"/>
    <path d="M 166.877036 115.142318 
L 153.375 111.075107 
L 139.872964 107.007896 
L 153.375 111.075107 
L 166.877036 115.142318 
" clip-path="url(#p9fdb3b788c)" style="fill: #2429f3"/>
    <path d="M 153.375 111.075107 
L 141.326509 106.002359 
L 127.824473 101.935148 
L 139.872964 107.007896 
L 153.375 111.075107 
" clip-path="url(#p9fdb3b788c)" style="fill: #2c3efa"/>
    <path d="M 141.326509 106.002359 
L 131.031317 100.050279 
L 117.529281 95.983068 
L 127.824473 101.935148 
L 141.326509 106.002359 
" clip-path="url(#p9fdb3b788c)" style="fill: #2f53fb"/>
    <path d="M 131.031317 100.050279 
L 122.745558 93.366948 
L 109.243522 89.299737 
L 117.529281 95.983068 
L 131.031317 100.050279 
" clip-path="url(#p9fdb3b788c)" style="fill: #2f62fc"/>
    <path d="M 122.745558 93.366948 
L 116.675374 86.118641 
L 103.173338 82.05143 
L 109.243522 89.299737 
L 122.745558 93.366948 
" clip-path="url(#p9fdb3b788c)" style="fill: #2c6ffd"/>
    <path d="M 116.675374 86.118641 
L 112.971784 78.485688 
L 99.469748 74.418478 
L 103.173338 82.05143 
L 116.675374 86.118641 
" clip-path="url(#p9fdb3b788c)" style="fill: #2b77fd"/>
    <path d="M 112.971784 78.485688 
L 111.726931 70.65799 
L 98.224895 66.59078 
L 99.469748 74.418478 
L 112.971784 78.485688 
" clip-path="url(#p9fdb3b788c)" style="fill: #2b7bfd"/>
    <path d="M 111.726931 70.65799 
L 112.971784 62.830293 
L 99.469748 58.763082 
L 98.224895 66.59078 
L 111.726931 70.65799 
" clip-path="url(#p9fdb3b788c)" style="fill: #2b7bfd"/>
    <path d="M 112.971784 62.830293 
L 116.675374 55.19734 
L 103.173338 51.13013 
L 99.469748 58.763082 
L 112.971784 62.830293 
" clip-path="url(#p9fdb3b788c)" style="fill: #2b77fd"/>
    <path d="M 116.675374 55.19734 
L 122.745558 47.949033 
L 109.243522 43.881823 
L 103.173338 51.13013 
L 116.675374 55.19734 
" clip-path="url(#p9fdb3b788c)" style="fill: #2c6ffd"/>
    <path d="M 122.745558 47.949033 
L 131.031317 41.265702 
L 117.529281 37.198492 
L 109.243522 43.881823 
L 122.745558 47.949033 
" clip-path="url(#p9fdb3b788c)" style="fill: #2f62fc"/>
    <path d="M 131.031317 41.265702 
L 141.326509 35.313622 
L 127.824473 31.246411 
L 117.529281 37.198492 
L 131.031317 41.265702 
" clip-path="url(#p9fdb3b788c)" style="fill: #2f53fb"/>
    <path d="M 141.326509 35.313622 
L 153.375 30.240874 
L 139.872964 26.173663 
L 127.824473 31.246411 
L 141.326509 35.313622 
" clip-path="url(#p9fdb3b788c)" style="fill: #2c3efa"/>
    <path d="M 153.375 30.240874 
L 166.877036 26.173663 
L 153.375 22.106453 
L 139.872964 26.173663 
L 153.375 30.240874 
" clip-path="url(#p9fdb3b788c)" style="fill: #2429f3"/>
    <path d="M 166.877036 26.173663 
L 181.4967 23.213178 
L 167.994664 19.145967 
L 153.375 22.106453 
L 166.877036 26.173663 
" clip-path="url(#p9fdb3b788c)" style="fill: #1316e0"/>
    <path d="M 181.4967 23.213178 
L 196.870268 21.433072 
L 183.368232 17.365861 
L 167.994664 19.145967 
L 181.4967 23.213178 
" clip-path="url(#p9fdb3b788c)" style="fill: #0708c4"/>
    <path d="M 196.870268 21.433072 
L 212.526931 20.25799 
L 199.024895 16.19078 
L 183.368232 17.365861 
L 196.870268 21.433072 
" clip-path="url(#p9fdb3b788c)" style="fill: #10019d"/>
    <path d="M 199.024895 116.99078 
L 183.368232 115.815698 
L 168.748569 112.855213 
L 184.405231 114.030294 
L 199.024895 116.99078 
" clip-path="url(#p9fdb3b788c)" style="fill: #0c0183"/>
    <path d="M 183.368232 115.815698 
L 167.994664 114.035592 
L 153.375 111.075107 
L 168.748569 112.855213 
L 183.368232 115.815698 
" clip-path="url(#p9fdb3b788c)" style="fill: #0e02a7"/>
    <path d="M 167.994664 114.035592 
L 153.375 111.075107 
L 138.755336 108.114622 
L 153.375 111.075107 
L 167.994664 114.035592 
" clip-path="url(#p9fdb3b788c)" style="fill: #0709c6"/>
    <path d="M 153.375 111.075107 
L 139.872964 107.007896 
L 125.2533 104.047411 
L 138.755336 108.114622 
L 153.375 111.075107 
" clip-path="url(#p9fdb3b788c)" style="fill: #1316e0"/>
    <path d="M 139.872964 107.007896 
L 127.824473 101.935148 
L 113.204809 98.974663 
L 125.2533 104.047411 
L 139.872964 107.007896 
" clip-path="url(#p9fdb3b788c)" style="fill: #2226f1"/>
    <path d="M 127.824473 101.935148 
L 117.529281 95.983068 
L 102.909617 93.022583 
L 113.204809 98.974663 
L 127.824473 101.935148 
" clip-path="url(#p9fdb3b788c)" style="fill: #2a37f9"/>
    <path d="M 117.529281 95.983068 
L 109.243522 89.299737 
L 94.623858 86.339252 
L 102.909617 93.022583 
L 117.529281 95.983068 
" clip-path="url(#p9fdb3b788c)" style="fill: #2e47fa"/>
    <path d="M 109.243522 89.299737 
L 103.173338 82.05143 
L 88.553674 79.090945 
L 94.623858 86.339252 
L 109.243522 89.299737 
" clip-path="url(#p9fdb3b788c)" style="fill: #2f53fb"/>
    <path d="M 103.173338 82.05143 
L 99.469748 74.418478 
L 84.850085 71.457992 
L 88.553674 79.090945 
L 103.173338 82.05143 
" clip-path="url(#p9fdb3b788c)" style="fill: #2f5bfc"/>
    <path d="M 99.469748 74.418478 
L 98.224895 66.59078 
L 83.605231 63.630294 
L 84.850085 71.457992 
L 99.469748 74.418478 
" clip-path="url(#p9fdb3b788c)" style="fill: #2f5ffc"/>
    <path d="M 98.224895 66.59078 
L 99.469748 58.763082 
L 84.850085 55.802597 
L 83.605231 63.630294 
L 98.224895 66.59078 
" clip-path="url(#p9fdb3b788c)" style="fill: #2f5ffc"/>
    <path d="M 99.469748 58.763082 
L 103.173338 51.13013 
L 88.553674 48.169644 
L 84.850085 55.802597 
L 99.469748 58.763082 
" clip-path="url(#p9fdb3b788c)" style="fill: #2f5bfc"/>
    <path d="M 103.173338 51.13013 
L 109.243522 43.881823 
L 94.623858 40.921337 
L 88.553674 48.169644 
L 103.173338 51.13013 
" clip-path="url(#p9fdb3b788c)" style="fill: #2f53fb"/>
    <path d="M 109.243522 43.881823 
L 117.529281 37.198492 
L 102.909617 34.238006 
L 94.623858 40.921337 
L 109.243522 43.881823 
" clip-path="url(#p9fdb3b788c)" style="fill: #2e47fa"/>
    <path d="M 117.529281 37.198492 
L 127.824473 31.246411 
L 113.204809 28.285926 
L 102.909617 34.238006 
L 117.529281 37.198492 
" clip-path="url(#p9fdb3b788c)" style="fill: #2a37f9"/>
    <path d="M 127.824473 31.246411 
L 139.872964 26.173663 
L 125.2533 23.213178 
L 113.204809 28.285926 
L 127.824473 31.246411 
" clip-path="url(#p9fdb3b788c)" style="fill: #2226f1"/>
    <path d="M 139.872964 26.173663 
L 153.375 22.106453 
L 138.755336 19.145967 
L 125.2533 23.213178 
L 139.872964 26.173663 
" clip-path="url(#p9fdb3b788c)" style="fill: #1316e0"/>
    <path d="M 153.375 22.106453 
L 167.994664 19.145967 
L 153.375 16.185482 
L 138.755336 19.145967 
L 153.375 22.106453 
" clip-path="url(#p9fdb3b788c)" style="fill: #0709c6"/>
    <path d="M 167.994664 19.145967 
L 183.368232 17.365861 
L 168.748569 14.405376 
L 153.375 16.185482 
L 167.994664 19.145967 
" clip-path="url(#p9fdb3b788c)" style="fill: #0e02a7"/>
    <path d="M 183.368232 17.365861 
L 199.024895 16.19078 
L 184.405231 13.230294 
L 168.748569 14.405376 
L 183.368232 17.365861 
" clip-path="url(#p9fdb3b788c)" style="fill: #0c0183"/>
    <path d="M 184.405231 114.030294 
L 168.748569 112.855213 
L 153.375 111.075107 
L 169.031662 112.250188 
L 184.405231 114.030294 
" clip-path="url(#p9fdb3b788c)" style="fill: #030267"/>
    <path d="M 168.748569 112.855213 
L 153.375 111.075107 
L 138.001431 109.295001 
L 153.375 111.075107 
L 168.748569 112.855213 
" clip-path="url(#p9fdb3b788c)" style="fill: #0d0187"/>
    <path d="M 153.375 111.075107 
L 138.755336 108.114622 
L 123.381768 106.334516 
L 138.001431 109.295001 
L 153.375 111.075107 
" clip-path="url(#p9fdb3b788c)" style="fill: #0e02a7"/>
    <path d="M 138.755336 108.114622 
L 125.2533 104.047411 
L 109.879732 102.267305 
L 123.381768 106.334516 
L 138.755336 108.114622 
" clip-path="url(#p9fdb3b788c)" style="fill: #0708c4"/>
    <path d="M 125.2533 104.047411 
L 113.204809 98.974663 
L 97.831241 97.194557 
L 109.879732 102.267305 
L 125.2533 104.047411 
" clip-path="url(#p9fdb3b788c)" style="fill: #0e12d9"/>
    <path d="M 113.204809 98.974663 
L 102.909617 93.022583 
L 87.536049 91.242477 
L 97.831241 97.194557 
L 113.204809 98.974663 
" clip-path="url(#p9fdb3b788c)" style="fill: #1b1ce9"/>
    <path d="M 102.909617 93.022583 
L 94.623858 86.339252 
L 79.25029 84.559146 
L 87.536049 91.242477 
L 102.909617 93.022583 
" clip-path="url(#p9fdb3b788c)" style="fill: #2429f3"/>
    <path d="M 94.623858 86.339252 
L 88.553674 79.090945 
L 73.180105 77.310839 
L 79.25029 84.559146 
L 94.623858 86.339252 
" clip-path="url(#p9fdb3b788c)" style="fill: #2934f8"/>
    <path d="M 88.553674 79.090945 
L 84.850085 71.457992 
L 69.476516 69.677886 
L 73.180105 77.310839 
L 88.553674 79.090945 
" clip-path="url(#p9fdb3b788c)" style="fill: #2b3bf9"/>
    <path d="M 84.850085 71.457992 
L 83.605231 63.630294 
L 68.231662 61.850188 
L 69.476516 69.677886 
L 84.850085 71.457992 
" clip-path="url(#p9fdb3b788c)" style="fill: #2c3efa"/>
    <path d="M 83.605231 63.630294 
L 84.850085 55.802597 
L 69.476516 54.022491 
L 68.231662 61.850188 
L 83.605231 63.630294 
" clip-path="url(#p9fdb3b788c)" style="fill: #2c3efa"/>
    <path d="M 84.850085 55.802597 
L 88.553674 48.169644 
L 73.180105 46.389538 
L 69.476516 54.022491 
L 84.850085 55.802597 
" clip-path="url(#p9fdb3b788c)" style="fill: #2b3bf9"/>
    <path d="M 88.553674 48.169644 
L 94.623858 40.921337 
L 79.25029 39.141231 
L 73.180105 46.389538 
L 88.553674 48.169644 
" clip-path="url(#p9fdb3b788c)" style="fill: #2934f8"/>
    <path d="M 94.623858 40.921337 
L 102.909617 34.238006 
L 87.536049 32.4579 
L 79.25029 39.141231 
L 94.623858 40.921337 
" clip-path="url(#p9fdb3b788c)" style="fill: #2429f3"/>
    <path d="M 102.909617 34.238006 
L 113.204809 28.285926 
L 97.831241 26.50582 
L 87.536049 32.4579 
L 102.909617 34.238006 
" clip-path="url(#p9fdb3b788c)" style="fill: #1b1ce9"/>
    <path d="M 113.204809 28.285926 
L 125.2533 23.213178 
L 109.879732 21.433072 
L 97.831241 26.50582 
L 113.204809 28.285926 
" clip-path="url(#p9fdb3b788c)" style="fill: #0e12d9"/>
    <path d="M 125.2533 23.213178 
L 138.755336 19.145967 
L 123.381768 17.365861 
L 109.879732 21.433072 
L 125.2533 23.213178 
" clip-path="url(#p9fdb3b788c)" style="fill: #0708c4"/>
    <path d="M 138.755336 19.145967 
L 153.375 16.185482 
L 138.001431 14.405376 
L 123.381768 17.365861 
L 138.755336 19.145967 
" clip-path="url(#p9fdb3b788c)" style="fill: #0e02a7"/>
    <path d="M 153.375 16.185482 
L 168.748569 14.405376 
L 153.375 12.62527 
L 138.001431 14.405376 
L 153.375 16.185482 
" clip-path="url(#p9fdb3b788c)" style="fill: #0d0187"/>
    <path d="M 168.748569 14.405376 
L 184.405231 13.230294 
L 169.031662 11.450188 
L 153.375 12.62527 
L 168.748569 14.405376 
" clip-path="url(#p9fdb3b788c)" style="fill: #030267"/>
    <path d="M 169.031662 112.250188 
L 153.375 111.075107 
L 137.718338 109.900026 
L 153.375 111.075107 
L 169.031662 112.250188 
" clip-path="url(#p9fdb3b788c)" style="fill: #00004e"/>
    <path d="M 153.375 111.075107 
L 138.001431 109.295001 
L 122.344769 108.11992 
L 137.718338 109.900026 
L 153.375 111.075107 
" clip-path="url(#p9fdb3b788c)" style="fill: #030267"/>
    <path d="M 138.001431 109.295001 
L 123.381768 106.334516 
L 107.725105 105.159434 
L 122.344769 108.11992 
L 138.001431 109.295001 
" clip-path="url(#p9fdb3b788c)" style="fill: #0c0183"/>
    <path d="M 123.381768 106.334516 
L 109.879732 102.267305 
L 94.223069 101.092224 
L 107.725105 105.159434 
L 123.381768 106.334516 
" clip-path="url(#p9fdb3b788c)" style="fill: #10019d"/>
    <path d="M 109.879732 102.267305 
L 97.831241 97.194557 
L 82.174578 96.019476 
L 94.223069 101.092224 
L 109.879732 102.267305 
" clip-path="url(#p9fdb3b788c)" style="fill: #0904b7"/>
    <path d="M 97.831241 97.194557 
L 87.536049 91.242477 
L 71.879386 90.067395 
L 82.174578 96.019476 
L 97.831241 97.194557 
" clip-path="url(#p9fdb3b788c)" style="fill: #070bca"/>
    <path d="M 87.536049 91.242477 
L 79.25029 84.559146 
L 63.593627 83.384064 
L 71.879386 90.067395 
L 87.536049 91.242477 
" clip-path="url(#p9fdb3b788c)" style="fill: #0e12d9"/>
    <path d="M 79.25029 84.559146 
L 73.180105 77.310839 
L 57.523443 76.135757 
L 63.593627 83.384064 
L 79.25029 84.559146 
" clip-path="url(#p9fdb3b788c)" style="fill: #1618e3"/>
    <path d="M 73.180105 77.310839 
L 69.476516 69.677886 
L 53.819853 68.502805 
L 57.523443 76.135757 
L 73.180105 77.310839 
" clip-path="url(#p9fdb3b788c)" style="fill: #1b1ce9"/>
    <path d="M 69.476516 69.677886 
L 68.231662 61.850188 
L 52.575 60.675107 
L 53.819853 68.502805 
L 69.476516 69.677886 
" clip-path="url(#p9fdb3b788c)" style="fill: #1d1feb"/>
    <path d="M 68.231662 61.850188 
L 69.476516 54.022491 
L 53.819853 52.847409 
L 52.575 60.675107 
L 68.231662 61.850188 
" clip-path="url(#p9fdb3b788c)" style="fill: #1d1feb"/>
    <path d="M 69.476516 54.022491 
L 73.180105 46.389538 
L 57.523443 45.214457 
L 53.819853 52.847409 
L 69.476516 54.022491 
" clip-path="url(#p9fdb3b788c)" style="fill: #1b1ce9"/>
    <path d="M 73.180105 46.389538 
L 79.25029 39.141231 
L 63.593627 37.96615 
L 57.523443 45.214457 
L 73.180105 46.389538 
" clip-path="url(#p9fdb3b788c)" style="fill: #1618e3"/>
    <path d="M 79.25029 39.141231 
L 87.536049 32.4579 
L 71.879386 31.282819 
L 63.593627 37.96615 
L 79.25029 39.141231 
" clip-path="url(#p9fdb3b788c)" style="fill: #0e12d9"/>
    <path d="M 87.536049 32.4579 
L 97.831241 26.50582 
L 82.174578 25.330738 
L 71.879386 31.282819 
L 87.536049 32.4579 
" clip-path="url(#p9fdb3b788c)" style="fill: #070bca"/>
    <path d="M 97.831241 26.50582 
L 109.879732 21.433072 
L 94.223069 20.25799 
L 82.174578 25.330738 
L 97.831241 26.50582 
" clip-path="url(#p9fdb3b788c)" style="fill: #0904b7"/>
    <path d="M 109.879732 21.433072 
L 123.381768 17.365861 
L 107.725105 16.19078 
L 94.223069 20.25799 
L 109.879732 21.433072 
" clip-path="url(#p9fdb3b788c)" style="fill: #10019d"/>
    <path d="M 123.381768 17.365861 
L 138.001431 14.405376 
L 122.344769 13.230294 
L 107.725105 16.19078 
L 123.381768 17.365861 
" clip-path="url(#p9fdb3b788c)" style="fill: #0c0183"/>
    <path d="M 138.001431 14.405376 
L 153.375 12.62527 
L 137.718338 11.450188 
L 122.344769 13.230294 
L 138.001431 14.405376 
" clip-path="url(#p9fdb3b788c)" style="fill: #030267"/>
    <path d="M 153.375 12.62527 
L 169.031662 11.450188 
L 153.375 10.275107 
L 137.718338 11.450188 
L 153.375 12.62527 
" clip-path="url(#p9fdb3b788c)" style="fill: #00004e"/>
   </g>
   <g id="matplotlib.axis_1">
    <g id="xtick_1">
     <g id="line2d_1">
      <defs>
       <path id="mc83c129dfa" d="M 0 0 
L 0 3.5 
" style="stroke: #000000; stroke-width: 0.8"/>
      </defs>
      <g>
       <use xlink:href="#mc83c129dfa" x="52.989682" y="211.875107" style="stroke: #000000; stroke-width: 0.8"/>
      </g>
     </g>
     <g id="text_1">
      <!-- 1.0 -->
      <g transform="translate(40.848276 226.473545) scale(0.1 -0.1)">
       <defs>
        <path id="DejaVuSans-2212" d="M 678 2272 
L 4684 2272 
L 4684 1741 
L 678 1741 
L 678 2272 
z
" transform="scale(0.015625)"/>
        <path id="DejaVuSans-31" d="M 794 531 
L 1825 531 
L 1825 4091 
L 703 3866 
L 703 4441 
L 1819 4666 
L 2450 4666 
L 2450 531 
L 3481 531 
L 3481 0 
L 794 0 
L 794 531 
z
" transform="scale(0.015625)"/>
        <path id="DejaVuSans-2e" d="M 684 794 
L 1344 794 
L 1344 0 
L 684 0 
L 684 794 
z
" transform="scale(0.015625)"/>
        <path id="DejaVuSans-30" d="M 2034 4250 
Q 1547 4250 1301 3770 
Q 1056 3291 1056 2328 
Q 1056 1369 1301 889 
Q 1547 409 2034 409 
Q 2525 409 2770 889 
Q 3016 1369 3016 2328 
Q 3016 3291 2770 3770 
Q 2525 4250 2034 4250 
z
M 2034 4750 
Q 2819 4750 3233 4129 
Q 3647 3509 3647 2328 
Q 3647 1150 3233 529 
Q 2819 -91 2034 -91 
Q 1250 -91 836 529 
Q 422 1150 422 2328 
Q 422 3509 836 4129 
Q 1250 4750 2034 4750 
z
" transform="scale(0.015625)"/>
       </defs>
       <use xlink:href="#DejaVuSans-2212"/>
       <use xlink:href="#DejaVuSans-31" x="83.789062"/>
       <use xlink:href="#DejaVuSans-2e" x="147.412109"/>
       <use xlink:href="#DejaVuSans-30" x="179.199219"/>
      </g>
     </g>
    </g>
    <g id="xtick_2">
     <g id="line2d_2">
      <g>
       <use xlink:href="#mc83c129dfa" x="103.182341" y="211.875107" style="stroke: #000000; stroke-width: 0.8"/>
      </g>
     </g>
     <g id="text_2">
      <!-- 0.5 -->
      <g transform="translate(91.040935 226.473545) scale(0.1 -0.1)">
       <defs>
        <path id="DejaVuSans-35" d="M 691 4666 
L 3169 4666 
L 3169 4134 
L 1269 4134 
L 1269 2991 
Q 1406 3038 1543 3061 
Q 1681 3084 1819 3084 
Q 2600 3084 3056 2656 
Q 3513 2228 3513 1497 
Q 3513 744 3044 326 
Q 2575 -91 1722 -91 
Q 1428 -91 1123 -41 
Q 819 9 494 109 
L 494 744 
Q 775 591 1075 516 
Q 1375 441 1709 441 
Q 2250 441 2565 725 
Q 2881 1009 2881 1497 
Q 2881 1984 2565 2268 
Q 2250 2553 1709 2553 
Q 1456 2553 1204 2497 
Q 953 2441 691 2322 
L 691 4666 
z
" transform="scale(0.015625)"/>
       </defs>
       <use xlink:href="#DejaVuSans-2212"/>
       <use xlink:href="#DejaVuSans-30" x="83.789062"/>
       <use xlink:href="#DejaVuSans-2e" x="147.412109"/>
       <use xlink:href="#DejaVuSans-35" x="179.199219"/>
      </g>
     </g>
    </g>
    <g id="xtick_3">
     <g id="line2d_3">
      <g>
       <use xlink:href="#mc83c129dfa" x="153.375" y="211.875107" style="stroke: #000000; stroke-width: 0.8"/>
      </g>
     </g>
     <g id="text_3">
      <!-- 0.0 -->
      <g transform="translate(145.423438 226.473545) scale(0.1 -0.1)">
       <use xlink:href="#DejaVuSans-30"/>
       <use xlink:href="#DejaVuSans-2e" x="63.623047"/>
       <use xlink:href="#DejaVuSans-30" x="95.410156"/>
      </g>
     </g>
    </g>
    <g id="xtick_4">
     <g id="line2d_4">
      <g>
       <use xlink:href="#mc83c129dfa" x="203.567659" y="211.875107" style="stroke: #000000; stroke-width: 0.8"/>
      </g>
     </g>
     <g id="text_4">
      <!-- 0.5 -->
      <g transform="translate(195.616096 226.473545) scale(0.1 -0.1)">
       <use xlink:href="#DejaVuSans-30"/>
       <use xlink:href="#DejaVuSans-2e" x="63.623047"/>
       <use xlink:href="#DejaVuSans-35" x="95.410156"/>
      </g>
     </g>
    </g>
    <g id="xtick_5">
     <g id="line2d_5">
      <g>
       <use xlink:href="#mc83c129dfa" x="253.760318" y="211.875107" style="stroke: #000000; stroke-width: 0.8"/>
      </g>
     </g>
     <g id="text_5">
      <!-- 1.0 -->
      <g transform="translate(245.808755 226.473545) scale(0.1 -0.1)">
       <use xlink:href="#DejaVuSans-31"/>
       <use xlink:href="#DejaVuSans-2e" x="63.623047"/>
       <use xlink:href="#DejaVuSans-30" x="95.410156"/>
      </g>
     </g>
    </g>
    <g id="text_6">
     <!-- neXt -->
     <g transform="translate(141.744531 240.15167) scale(0.1 -0.1)">
      <defs>
       <path id="DejaVuSans-6e" d="M 3513 2113 
L 3513 0 
L 2938 0 
L 2938 2094 
Q 2938 2591 2744 2837 
Q 2550 3084 2163 3084 
Q 1697 3084 1428 2787 
Q 1159 2491 1159 1978 
L 1159 0 
L 581 0 
L 581 3500 
L 1159 3500 
L 1159 2956 
Q 1366 3272 1645 3428 
Q 1925 3584 2291 3584 
Q 2894 3584 3203 3211 
Q 3513 2838 3513 2113 
z
" transform="scale(0.015625)"/>
       <path id="DejaVuSans-65" d="M 3597 1894 
L 3597 1613 
L 953 1613 
Q 991 1019 1311 708 
Q 1631 397 2203 397 
Q 2534 397 2845 478 
Q 3156 559 3463 722 
L 3463 178 
Q 3153 47 2828 -22 
Q 2503 -91 2169 -91 
Q 1331 -91 842 396 
Q 353 884 353 1716 
Q 353 2575 817 3079 
Q 1281 3584 2069 3584 
Q 2775 3584 3186 3129 
Q 3597 2675 3597 1894 
z
M 3022 2063 
Q 3016 2534 2758 2815 
Q 2500 3097 2075 3097 
Q 1594 3097 1305 2825 
Q 1016 2553 972 2059 
L 3022 2063 
z
" transform="scale(0.015625)"/>
       <path id="DejaVuSans-58" d="M 403 4666 
L 1081 4666 
L 2241 2931 
L 3406 4666 
L 4084 4666 
L 2584 2425 
L 4184 0 
L 3506 0 
L 2194 1984 
L 872 0 
L 191 0 
L 1856 2491 
L 403 4666 
z
" transform="scale(0.015625)"/>
       <path id="DejaVuSans-74" d="M 1172 4494 
L 1172 3500 
L 2356 3500 
L 2356 3053 
L 1172 3053 
L 1172 1153 
Q 1172 725 1289 603 
Q 1406 481 1766 481 
L 2356 481 
L 2356 0 
L 1766 0 
Q 1100 0 847 248 
Q 594 497 594 1153 
L 594 3053 
L 172 3053 
L 172 3500 
L 594 3500 
L 594 4494 
L 1172 4494 
z
" transform="scale(0.015625)"/>
      </defs>
      <use xlink:href="#DejaVuSans-6e"/>
      <use xlink:href="#DejaVuSans-65" x="63.378906"/>
      <use xlink:href="#DejaVuSans-58" x="124.902344"/>
      <use xlink:href="#DejaVuSans-74" x="193.408203"/>
     </g>
    </g>
   </g>
   <g id="matplotlib.axis_2">
    <g id="ytick_1">
     <g id="line2d_6">
      <defs>
       <path id="m08f459eedf" d="M 0 0 
L -3.5 0 
" style="stroke: #000000; stroke-width: 0.8"/>
      </defs>
      <g>
       <use xlink:href="#m08f459eedf" x="52.575" y="210.950214" style="stroke: #000000; stroke-width: 0.8"/>
      </g>
     </g>
     <g id="text_7">
      <!-- 2.0 -->
      <g transform="translate(21.292188 214.749433) scale(0.1 -0.1)">
       <defs>
        <path id="DejaVuSans-32" d="M 1228 531 
L 3431 531 
L 3431 0 
L 469 0 
L 469 531 
Q 828 903 1448 1529 
Q 2069 2156 2228 2338 
Q 2531 2678 2651 2914 
Q 2772 3150 2772 3378 
Q 2772 3750 2511 3984 
Q 2250 4219 1831 4219 
Q 1534 4219 1204 4116 
Q 875 4013 500 3803 
L 500 4441 
Q 881 4594 1212 4672 
Q 1544 4750 1819 4750 
Q 2544 4750 2975 4387 
Q 3406 4025 3406 3419 
Q 3406 3131 3298 2873 
Q 3191 2616 2906 2266 
Q 2828 2175 2409 1742 
Q 1991 1309 1228 531 
z
" transform="scale(0.015625)"/>
       </defs>
       <use xlink:href="#DejaVuSans-2212"/>
       <use xlink:href="#DejaVuSans-32" x="83.789062"/>
       <use xlink:href="#DejaVuSans-2e" x="147.412109"/>
       <use xlink:href="#DejaVuSans-30" x="179.199219"/>
      </g>
     </g>
    </g>
    <g id="ytick_2">
     <g id="line2d_7">
      <g>
       <use xlink:href="#m08f459eedf" x="52.575" y="185.981437" style="stroke: #000000; stroke-width: 0.8"/>
      </g>
     </g>
     <g id="text_8">
      <!-- 1.5 -->
      <g transform="translate(21.292188 189.780656) scale(0.1 -0.1)">
       <use xlink:href="#DejaVuSans-2212"/>
       <use xlink:href="#DejaVuSans-31" x="83.789062"/>
       <use xlink:href="#DejaVuSans-2e" x="147.412109"/>
       <use xlink:href="#DejaVuSans-35" x="179.199219"/>
      </g>
     </g>
    </g>
    <g id="ytick_3">
     <g id="line2d_8">
      <g>
       <use xlink:href="#m08f459eedf" x="52.575" y="161.012661" style="stroke: #000000; stroke-width: 0.8"/>
      </g>
     </g>
     <g id="text_9">
      <!-- 1.0 -->
      <g transform="translate(21.292188 164.811879) scale(0.1 -0.1)">
       <use xlink:href="#DejaVuSans-2212"/>
       <use xlink:href="#DejaVuSans-31" x="83.789062"/>
       <use xlink:href="#DejaVuSans-2e" x="147.412109"/>
       <use xlink:href="#DejaVuSans-30" x="179.199219"/>
      </g>
     </g>
    </g>
    <g id="ytick_4">
     <g id="line2d_9">
      <g>
       <use xlink:href="#m08f459eedf" x="52.575" y="136.043884" style="stroke: #000000; stroke-width: 0.8"/>
      </g>
     </g>
     <g id="text_10">
      <!-- 0.5 -->
      <g transform="translate(21.292188 139.843103) scale(0.1 -0.1)">
       <use xlink:href="#DejaVuSans-2212"/>
       <use xlink:href="#DejaVuSans-30" x="83.789062"/>
       <use xlink:href="#DejaVuSans-2e" x="147.412109"/>
       <use xlink:href="#DejaVuSans-35" x="179.199219"/>
      </g>
     </g>
    </g>
    <g id="ytick_5">
     <g id="line2d_10">
      <g>
       <use xlink:href="#m08f459eedf" x="52.575" y="111.075107" style="stroke: #000000; stroke-width: 0.8"/>
      </g>
     </g>
     <g id="text_11">
      <!-- 0.0 -->
      <g transform="translate(29.671875 114.874326) scale(0.1 -0.1)">
       <use xlink:href="#DejaVuSans-30"/>
       <use xlink:href="#DejaVuSans-2e" x="63.623047"/>
       <use xlink:href="#DejaVuSans-30" x="95.410156"/>
      </g>
     </g>
    </g>
    <g id="ytick_6">
     <g id="line2d_11">
      <g>
       <use xlink:href="#m08f459eedf" x="52.575" y="86.10633" style="stroke: #000000; stroke-width: 0.8"/>
      </g>
     </g>
     <g id="text_12">
      <!-- 0.5 -->
      <g transform="translate(29.671875 89.905549) scale(0.1 -0.1)">
       <use xlink:href="#DejaVuSans-30"/>
       <use xlink:href="#DejaVuSans-2e" x="63.623047"/>
       <use xlink:href="#DejaVuSans-35" x="95.410156"/>
      </g>
     </g>
    </g>
    <g id="ytick_7">
     <g id="line2d_12">
      <g>
       <use xlink:href="#m08f459eedf" x="52.575" y="61.137554" style="stroke: #000000; stroke-width: 0.8"/>
      </g>
     </g>
     <g id="text_13">
      <!-- 1.0 -->
      <g transform="translate(29.671875 64.936772) scale(0.1 -0.1)">
       <use xlink:href="#DejaVuSans-31"/>
       <use xlink:href="#DejaVuSans-2e" x="63.623047"/>
       <use xlink:href="#DejaVuSans-30" x="95.410156"/>
      </g>
     </g>
    </g>
    <g id="ytick_8">
     <g id="line2d_13">
      <g>
       <use xlink:href="#m08f459eedf" x="52.575" y="36.168777" style="stroke: #000000; stroke-width: 0.8"/>
      </g>
     </g>
     <g id="text_14">
      <!-- 1.5 -->
      <g transform="translate(29.671875 39.967996) scale(0.1 -0.1)">
       <use xlink:href="#DejaVuSans-31"/>
       <use xlink:href="#DejaVuSans-2e" x="63.623047"/>
       <use xlink:href="#DejaVuSans-35" x="95.410156"/>
      </g>
     </g>
    </g>
    <g id="ytick_9">
     <g id="line2d_14">
      <g>
       <use xlink:href="#m08f459eedf" x="52.575" y="11.2" style="stroke: #000000; stroke-width: 0.8"/>
      </g>
     </g>
     <g id="text_15">
      <!-- 2.0 -->
      <g transform="translate(29.671875 14.999219) scale(0.1 -0.1)">
       <use xlink:href="#DejaVuSans-32"/>
       <use xlink:href="#DejaVuSans-2e" x="63.623047"/>
       <use xlink:href="#DejaVuSans-30" x="95.410156"/>
      </g>
     </g>
    </g>
    <g id="text_16">
     <!-- Ys -->
     <g transform="translate(15.2125 116.733701) rotate(-90) scale(0.1 -0.1)">
      <defs>
       <path id="DejaVuSans-59" d="M -13 4666 
L 666 4666 
L 1959 2747 
L 3244 4666 
L 3922 4666 
L 2272 2222 
L 2272 0 
L 1638 0 
L 1638 2222 
L -13 4666 
z
" transform="scale(0.015625)"/>
       <path id="DejaVuSans-73" d="M 2834 3397 
L 2834 2853 
Q 2591 2978 2328 3040 
Q 2066 3103 1784 3103 
Q 1356 3103 1142 2972 
Q 928 2841 928 2578 
Q 928 2378 1081 2264 
Q 1234 2150 1697 2047 
L 1894 2003 
Q 2506 1872 2764 1633 
Q 3022 1394 3022 966 
Q 3022 478 2636 193 
Q 2250 -91 1575 -91 
Q 1294 -91 989 -36 
Q 684 19 347 128 
L 347 722 
Q 666 556 975 473 
Q 1284 391 1588 391 
Q 1994 391 2212 530 
Q 2431 669 2431 922 
Q 2431 1156 2273 1281 
Q 2116 1406 1581 1522 
L 1381 1569 
Q 847 1681 609 1914 
Q 372 2147 372 2553 
Q 372 3047 722 3315 
Q 1072 3584 1716 3584 
Q 2034 3584 2315 3537 
Q 2597 3491 2834 3397 
z
" transform="scale(0.015625)"/>
      </defs>
      <use xlink:href="#DejaVuSans-59"/>
      <use xlink:href="#DejaVuSans-73" x="61.083984"/>
     </g>
    </g>
   </g>
   <g id="patch_3">
    <path d="M 52.575 211.875107 
L 52.575 10.275107 
" style="fill: none; stroke: #000000; stroke-width: 0.8; stroke-linejoin: miter; stroke-linecap: square"/>
   </g>
   <g id="patch_4">
    <path d="M 254.175 211.875107 
L 254.175 10.275107 
" style="fill: none; stroke: #000000; stroke-width: 0.8; stroke-linejoin: miter; stroke-linecap: square"/>
   </g>
   <g id="patch_5">
    <path d="M 52.575 211.875107 
L 254.175 211.875107 
" style="fill: none; stroke: #000000; stroke-width: 0.8; stroke-linejoin: miter; stroke-linecap: square"/>
   </g>
   <g id="patch_6">
    <path d="M 52.575 10.275107 
L 254.175 10.275107 
" style="fill: none; stroke: #000000; stroke-width: 0.8; stroke-linejoin: miter; stroke-linecap: square"/>
   </g>
  </g>
 </g>
 <defs>
  <clipPath id="p9fdb3b788c">
   <rect x="52.575" y="10.275107" width="201.6" height="201.6"/>
  </clipPath>
 </defs>
</svg>
